<?xml version="1.0" encoding="UTF-8"?>
<svg version="1.1" xmlns="http://www.w3.org/2000/svg" width="1024" height="1024">
<path d="M0 0 C337.92 0 675.84 0 1024 0 C1024 337.92 1024 675.84 1024 1024 C686.08 1024 348.16 1024 0 1024 C0 686.08 0 348.16 0 0 Z " fill="#FEFEFE" transform="translate(0,0)"/>
<path d="M0 0 C6.39156383 4.60863734 11.85688159 10.07546369 17.41725445 15.63333511 C18.50351924 16.71196475 19.59018001 17.79019572 20.67720318 18.86806107 C23.60959473 21.77864186 26.53551191 24.69564475 29.45956683 27.61459827 C31.29053363 29.4419073 33.12278843 31.26791493 34.95547199 33.09350204 C41.3597297 39.47331754 47.75829317 45.85878696 54.15211773 52.24905777 C60.0956587 58.18896161 66.05221308 64.1155941 72.01481885 70.0363543 C77.1491941 75.13596563 82.2738352 80.24522579 87.39120609 85.36190009 C90.44094323 88.41084689 93.49446744 91.45574298 96.55806828 94.49076462 C99.43960375 97.34601284 102.30877493 100.21314494 105.16919231 103.0895443 C106.21573156 104.1378892 107.26648842 105.18204483 108.32191181 106.22144508 C117.18592588 114.95912012 123.46553997 123.31649686 123.6489439 136.10892105 C123.49541927 151.35903489 115.37770069 160.39731357 104.98414898 170.74026871 C103.92514642 171.80498296 102.86677322 172.8703235 101.80897808 173.93623734 C98.95005609 176.8130188 96.08173965 179.68025222 93.2110188 182.54525423 C90.80782006 184.94535023 88.40924495 187.35004081 86.01061267 189.75469911 C80.34763613 195.43169601 74.67692945 201.10088739 69.00123882 206.76517105 C63.16315922 212.5917757 57.33796453 218.43103517 51.51904088 224.27676547 C46.50699604 229.31102593 41.48716208 234.33742535 36.46106929 239.35766065 C33.46622229 242.34915044 30.47428762 245.34340516 27.48977375 248.34520721 C24.68089201 251.16964933 21.86232582 253.98406842 19.03631115 256.79136467 C18.00660537 257.81740944 16.98022233 258.84680254 15.9576273 259.87993431 C5.96826365 269.96425301 -4.34600056 277.76241259 -18.9135561 278.42142105 C-36.5065511 277.90880465 -46.95893464 264.7096358 -58.58689594 253.11258316 C-59.64573073 252.0600328 -60.704747 251.00766497 -61.76392841 249.95546341 C-65.20010696 246.54006148 -68.63119122 243.11956565 -72.0619936 239.6987648 C-73.25120866 238.51360473 -74.44045473 237.32847578 -75.62973118 236.1433773 C-81.21082157 230.58126634 -86.789547 225.01679681 -92.3653425 219.44937795 C-98.779068 213.04545166 -105.20101805 206.64992135 -111.6299547 200.26126665 C-116.61896389 195.30244003 -121.60025055 190.33594009 -126.57584631 185.36365515 C-129.53990814 182.40193761 -132.507147 179.44358185 -135.48262882 176.49333382 C-138.27732328 173.72196827 -141.06228309 170.94117406 -143.84020329 168.15299797 C-144.85739179 167.13531548 -145.87797475 166.12101206 -146.90227222 165.11048508 C-155.8425054 156.2837172 -160.79558888 149.09362421 -160.9135561 136.29642105 C-160.89545149 118.4452732 -148.94463421 109.12449767 -137.02341938 97.15091324 C-135.99545078 96.11501741 -134.96765443 95.07895064 -133.94001484 94.04272842 C-130.60411642 90.68094683 -127.26307097 87.32430698 -123.9213686 83.96829605 C-122.76230629 82.80386311 -121.60324743 81.63942675 -120.44419193 80.47498703 C-115.62156153 75.63079156 -110.79751731 70.78801137 -105.96975613 65.94892883 C-99.08987592 59.0527957 -92.21865194 52.14828744 -85.35913002 45.23190188 C-80.51073004 40.34470189 -75.65268893 35.46721798 -70.78748977 30.59674191 C-67.89198481 27.69760195 -65.00072686 24.79451718 -62.11976719 21.8809166 C-59.41052274 19.14140758 -56.68941862 16.4142407 -53.95915318 13.69568634 C-52.96603631 12.70278856 -51.97710044 11.70568606 -50.99298573 10.70386505 C-37.34400795 -3.17699925 -18.08437805 -12.18285198 0 0 Z " fill="#D10621" transform="translate(227.601056098938,365.0785789489746)"/>
<path d="M0 0 C8.24271837 5.92721135 15.24108908 14.11496188 22.38671875 21.2890625 C23.77556226 22.679775 25.16462962 24.07026399 26.5539093 25.46054077 C30.19225664 29.10268484 33.82759236 32.7478202 37.46228027 36.39361572 C41.15858512 40.10016049 44.85772719 43.80387127 48.55664062 47.5078125 C54.52923709 53.48917103 60.50012492 59.47222863 66.46870422 65.45759583 C68.88931408 67.88486374 71.31105931 70.31094999 73.73542786 72.73446655 C75.31433817 74.31404711 76.88779654 75.89908807 78.45703125 77.48828125 C80.64187298 79.64627392 82.87254321 81.73217285 85.14892578 83.79272461 C91.46283309 89.51651903 97.57503458 95.43615309 103.625 101.4375 C104.40705811 102.20666748 105.18911621 102.97583496 105.99487305 103.76831055 C106.73133057 104.503479 107.46778809 105.23864746 108.2265625 105.99609375 C108.88221191 106.64763428 109.53786133 107.2991748 110.21337891 107.97045898 C113.86686118 112.12069103 115.32388064 115.24865827 115.49609375 120.83984375 C113.76375776 128.38300755 106.27080546 134.0258277 101.03417969 139.25634766 C100.0117019 140.28481635 98.98963319 141.31369189 97.96794128 142.34294128 C95.20192733 145.12656283 92.42951321 147.90372246 89.65532207 150.67919207 C87.92005433 152.41588466 86.18621987 154.153995 84.45288849 155.89262009 C78.39926358 161.96472624 72.34051576 168.03166561 66.27685547 174.09375 C60.63505202 179.7343518 55.004501 185.38601482 49.37911105 191.04298174 C44.53939362 195.90889013 39.69195583 200.76701579 34.83848691 205.61920774 C31.94402709 208.51315887 29.05272296 211.41009553 26.16915131 214.31489944 C23.45621485 217.04726633 20.73375077 219.7697739 18.00383949 222.48517799 C17.00713852 223.47979591 16.01380136 224.47779868 15.02422905 225.47950935 C3.1137444 237.52650515 3.1137444 237.52650515 -5.375 238.3125 C-17.24106066 234.01616769 -27.84142382 219.2848744 -36.6015625 210.49609375 C-38.2909893 208.80479872 -39.98063936 207.11372667 -41.67050171 205.42286682 C-46.08834516 201.00123004 -50.50317557 196.57659699 -54.9173584 192.15130615 C-59.43395441 187.6244271 -63.95343068 183.10042555 -68.47265625 178.57617188 C-77.31790531 169.72024174 -86.15996992 160.86113954 -95 152 C-94.20311768 151.21214111 -93.40623535 150.42428223 -92.58520508 149.61254883 C-90.6461326 147.65296675 -89.13355693 145.99047955 -87.6875 143.6875 C-87.130625 142.800625 -86.57375 141.91375 -86 141 C-79.69952311 146.1341188 -74.06408656 151.87540961 -68.37976646 157.66732979 C-65.99059559 160.09903133 -63.59169093 162.52103584 -61.19339466 164.94373226 C-56.74352984 169.43907504 -52.29760849 173.93814377 -47.8684082 178.45385742 C-44.77200371 181.60998599 -41.66323882 184.75347555 -38.54621315 187.88923454 C-37.36920709 189.0779001 -36.19672331 190.27106302 -35.02911949 191.46896553 C-26.79313706 199.9132616 -18.35435043 207.97370442 -5.875 208.25 C10.16422416 207.98663015 19.61955399 196.72129244 30.2578125 186.1484375 C30.88287563 185.52902912 31.50793877 184.90962074 32.15194321 184.27144241 C35.45810109 180.99511561 38.7585788 177.7131946 42.05419922 174.42626953 C45.43410996 171.0573233 48.83217885 167.70734307 52.23492622 164.36148643 C54.8721467 161.76175221 57.49562374 159.14846505 60.11568832 156.53145218 C61.36167846 155.29146078 62.61260369 154.05640561 63.86877823 152.82673264 C72.61974829 144.24738378 80.91262866 135.73472528 81.625 122.8125 C80.64435792 106.76752644 66.50126292 96.32306188 55.87890625 85.60546875 C55.03292027 84.75149726 55.03292027 84.75149726 54.16984367 83.88027382 C51.19182026 80.87577805 48.21030391 77.87479435 45.22631836 74.8762207 C42.77849143 72.41500607 40.33816611 69.94670064 37.90405273 67.47192383 C34.93523615 64.45356195 31.95411771 61.44787636 28.96397209 58.45064735 C27.83750842 57.31752215 26.71526062 56.1801878 25.59759712 55.03838158 C17.0673685 46.33426715 8.64179109 38.97422462 -4.125 38.6875 C-18.85612332 38.83464774 -28.26640199 48.93872667 -38.0456543 58.83984375 C-39.55793181 60.37037666 -41.07805698 61.89275532 -42.59960938 63.4140625 C-46.63162086 67.46611506 -50.60008805 71.51041486 -54.33374023 75.84033203 C-58.06846524 80.14060175 -62.04411552 84.15411451 -66.09375 88.15625 C-66.84410522 88.9028186 -67.59446045 89.64938721 -68.36755371 90.4185791 C-71.54216504 93.57701112 -74.72275916 96.72939279 -77.90283203 99.88232422 C-80.23940361 102.20069745 -82.57287999 104.5221552 -84.90625 106.84375 C-85.6137439 107.54294556 -86.32123779 108.24214111 -87.0501709 108.96252441 C-91.04742696 112.94029442 -94.85347439 117.02012784 -98.52250671 121.30328369 C-100.94887754 124.08966722 -103.62595881 126.59717891 -106.30078125 129.140625 C-108.00281712 131.00308264 -108.99673994 132.69810382 -110 135 C-113.62809719 133.47238013 -115.94346298 131.29392861 -118.6875 128.5 C-119.47511719 127.7059375 -120.26273437 126.911875 -121.07421875 126.09375 C-123.64942456 123.29393191 -124.24505007 121.73489097 -124.125 118 C-123.5284453 113.63794149 -122.05519675 111.5131333 -119.06033325 108.32821655 C-118.24377384 107.45525311 -117.42721443 106.58228966 -116.5859108 105.68287277 C-112.3954519 101.33528735 -108.17678479 97.02100123 -103.90966797 92.74853516 C-102.93430296 91.76852612 -101.95912973 90.78832619 -100.98413086 89.80795288 C-98.36691982 87.17778424 -95.74652435 84.5508127 -93.12506628 81.92487764 C-91.48309361 80.27995226 -89.84170037 78.63445075 -88.20047379 76.98878098 C-83.05188594 71.82657371 -77.90134153 66.66633078 -72.74788177 61.50898707 C-66.82155059 55.57816257 -60.90184506 49.64082697 -54.98772323 43.69782794 C-50.39575252 39.08422193 -45.79801482 34.47641515 -41.19588196 29.87294614 C-38.45515638 27.1311756 -35.71688475 24.3870596 -32.98461533 21.63685989 C-30.41874896 19.0544766 -27.8457699 16.47939583 -25.26725769 13.90964127 C-23.87883838 12.52235449 -22.49782911 11.12766385 -21.11709595 9.73272705 C-8.47526807 -2.82508936 -8.47526807 -2.82508936 0 0 Z " fill="#FEFCFC" transform="translate(213,383)"/>
<path d="M0 0 C5.6196024 2.84001411 10.05377283 7.87631894 14.5 12.25 C15.04100342 12.78141602 15.58200684 13.31283203 16.1394043 13.86035156 C20 17.75512283 20 17.75512283 20 20 C21.32 20.66 22.64 21.32 24 22 C24 22.66 24 23.32 24 24 C25.485 24.495 25.485 24.495 27 25 C27 25.66 27 26.32 27 27 C27.5775 27.226875 28.155 27.45375 28.75 27.6875 C31.56427613 29.32916107 33.02737733 31.43559053 35 34 C35.66 34.33 36.32 34.66 37 35 C37 35.66 37 36.32 37 37 C38.485 37.495 38.485 37.495 40 38 C42.1875 39.9375 42.1875 39.9375 44 42 C44 42.66 44 43.32 44 44 C45.485 44.495 45.485 44.495 47 45 C48.71358643 46.61838719 50.3707726 48.29671681 52 50 C52.89525391 50.84691406 52.89525391 50.84691406 53.80859375 51.7109375 C57.16147978 54.90349842 59.74456606 57.39674222 61 62 C55.06935464 69.06554956 48.59628793 75.56735795 42.08203125 82.0859375 C40.93569428 83.23549408 39.78942989 84.38512305 38.64323425 85.53482056 C36.25553853 87.92846615 33.86582384 90.32007479 31.47485352 92.71044922 C28.41327046 95.77193002 25.35866312 98.84027221 22.30571461 101.91036034 C19.94739368 104.27979146 17.58455024 106.64467213 15.22040367 109.00828934 C14.09168468 110.13818673 12.96458308 111.26970226 11.83915138 112.40287399 C10.26962615 113.98219399 8.6938952 115.55505569 7.11645508 117.12646484 C6.22267654 118.0216684 5.32889801 118.91687195 4.40803528 119.83920288 C1.17079342 122.74407016 -0.78142169 123.9268853 -5.125 124.1875 C-10.99862624 123.0698967 -14.93861319 118.05744626 -19 114 C-19.57298828 113.43394043 -20.14597656 112.86788086 -20.73632812 112.28466797 C-24.33156724 108.7323201 -27.90239396 105.15687769 -31.45361328 101.56054688 C-32.83942688 100.16204348 -34.2373085 98.77552285 -35.63671875 97.390625 C-38.00778757 94.99212232 -40.26150237 92.52225085 -42.5 90 C-46.94272667 85.0457752 -51.48769993 80.44001865 -56.5 76.0625 C-60.0714938 72.91745322 -63.04321324 69.71710336 -66 66 C-67.32240989 64.65583199 -68.65402929 63.32057503 -70 62 C-62.08406338 54.06092719 -54.16545338 46.12453175 -46.24338722 38.19157505 C-42.56522713 34.50818894 -38.88800608 30.8238753 -35.21289062 27.13745117 C-31.66839191 23.58211365 -28.1214797 20.02920074 -24.5728569 16.47797966 C-23.21715827 15.12042858 -21.86234232 13.76199545 -20.50841141 12.40268135 C-18.61680012 10.5038465 -16.72211859 8.60812821 -14.82666016 6.71313477 C-13.98185341 5.8629351 -13.98185341 5.8629351 -13.11997986 4.99555969 C-8.6319096 0.51944571 -6.47144639 -0.73064717 0 0 Z " fill="#FEFDFD" transform="translate(212,445)"/>
<path d="M0 0 C56.29642116 0 56.29642116 0 71.25 13.625 C81.49108935 24.48676143 84.53523184 38.98992906 84.375 53.4375 C84.38660156 54.47970703 84.39820313 55.52191406 84.41015625 56.59570312 C84.35364516 71.78776725 79.70256111 84.89831126 69.17578125 96 C50.59535701 113.07931277 22.89901732 108 0 108 C0 72.36 0 36.72 0 0 Z " fill="#0F2039" transform="translate(873,410)"/>
<path d="M0 0 C7.26 0 14.52 0 22 0 C22.01458252 2.05766602 22.02916504 4.11533203 22.04418945 6.23535156 C22.09479942 13.0766655 22.16143882 19.9177581 22.23571491 26.75885391 C22.28021312 30.90171569 22.31951283 35.04448377 22.34643555 39.1875 C22.37267574 43.19477514 22.41321965 47.20168561 22.46318626 51.2087326 C22.47971634 52.7282834 22.49131604 54.24789707 22.49761391 55.76752472 C22.45061244 73.54505455 22.45061244 73.54505455 31.0703125 88.44140625 C38.04229536 94.07262317 46.36795469 93.76461007 55 93 C57.97358613 92.28633933 60.21555751 91.34065749 63 90 C63.78375 89.71125 64.5675 89.4225 65.375 89.125 C67.76808503 87.46824883 68.1018785 85.75423927 69 83 C69.51856252 81.66578186 70.03955417 80.33250621 70.5625 79 C72.63679022 73.6691816 73.13329078 68.7176593 73.20532227 63.0065918 C73.21522186 62.32311172 73.22512146 61.63963165 73.23532104 60.93544006 C73.26675406 58.69006746 73.29162095 56.44467374 73.31640625 54.19921875 C73.33699153 52.63694223 73.3579884 51.07467109 73.37937927 49.5124054 C73.43443751 45.41076014 73.48391808 41.30906599 73.53222656 37.20733643 C73.58256061 33.01773757 73.6381844 28.82820928 73.69335938 24.63867188 C73.80074208 16.42583943 73.90174163 8.21294668 74 0 C81.26 0 88.52 0 96 0 C96.0453695 9.06726863 96.081984 18.13446059 96.10362434 27.20181751 C96.11401597 31.41315272 96.12808966 35.62440555 96.15087891 39.83569336 C96.17277349 43.90761297 96.18460328 47.97945386 96.18975449 52.05142784 C96.19342066 53.5969841 96.20057884 55.14253655 96.21146011 56.68805885 C96.32860416 74.03262713 94.49442849 89.72907792 82.2578125 102.87109375 C76.9188012 108.02179967 70.93978814 110.57297027 64 113 C62.7625 113.433125 61.525 113.86625 60.25 114.3125 C45.93650655 117.41375691 30.37197553 114.66978889 18 107 C7.46809898 99.64647625 2.99957852 89.41777892 0.36738586 77.13959885 C-0.76568479 70.54076936 -0.48054387 63.79849974 -0.390625 57.12890625 C-0.383141 55.46883332 -0.37745832 53.8087514 -0.37347412 52.14866638 C-0.35838724 47.83314515 -0.31925771 43.51818447 -0.2746582 39.20288086 C-0.23333392 34.77790911 -0.21538476 30.35284452 -0.1953125 25.92773438 C-0.15274182 17.28487355 -0.08253696 8.64257162 0 0 Z " fill="#0F2039" transform="translate(393,410)"/>
<path d="M0 0 C4.74212615 3.62212651 9.42019063 8.04572815 11.33203125 13.78125 C8.75905343 15.3429877 6.17611663 16.88031742 3.58203125 18.40625 C2.85242188 18.85226562 2.1228125 19.29828125 1.37109375 19.7578125 C0.66210938 20.1703125 -0.046875 20.5828125 -0.77734375 21.0078125 C-1.42670898 21.39533691 -2.07607422 21.78286133 -2.74511719 22.18212891 C-4.66796875 22.78125 -4.66796875 22.78125 -6.80859375 21.97973633 C-8.72217158 20.7463128 -10.27206878 19.41374682 -11.91796875 17.84375 C-17.99531602 12.57757408 -23.9923945 11.1997841 -31.9765625 11.421875 C-36.01748094 11.96144611 -39.40277656 13.33440172 -42.66796875 15.78125 C-45.5136331 20.04974653 -45.39111788 23.77545103 -44.66796875 28.78125 C-39.47595984 37.43459818 -23.71307202 39.81340008 -14.46826172 42.55053711 C-5.1258836 45.38313986 4.11705331 49.39197508 9.6875 57.8359375 C13.73512131 65.58048369 14.56005893 74.08695604 12.71875 82.625 C9.79541251 91.79423476 4.44484392 98.21841531 -3.79296875 103.15625 C-18.58380278 110.52098064 -34.35231599 110.24020442 -49.80078125 105.43164062 C-59.06370413 102.20512042 -68.26364956 96.11290876 -73.66796875 87.78125 C-72.2830484 83.62648895 -69.38848707 82.28243956 -65.85546875 80.03125 C-64.9109082 79.39509766 -64.9109082 79.39509766 -63.94726562 78.74609375 C-59.22438404 75.70322985 -59.22438404 75.70322985 -56.55249023 76.07788086 C-54.16917251 76.96741815 -53.1859509 78.16592924 -51.54296875 80.09375 C-45.23458517 86.54822247 -38.42994689 88.15521537 -29.54296875 88.28125 C-23.3117734 88.21387398 -18.77951919 87.46156632 -13.66796875 83.78125 C-11.72362214 80.7751878 -11.35485574 78.4582663 -11.54296875 74.90625 C-11.56101562 74.08382812 -11.5790625 73.26140625 -11.59765625 72.4140625 C-13.37320635 68.04646847 -16.61961003 66.02403918 -20.66796875 63.78125 C-24.88396222 62.13557328 -29.18031468 60.91287074 -33.54296875 59.71875 C-58.89889429 52.64301704 -58.89889429 52.64301704 -65.48046875 41.21875 C-69.75396188 33.23879681 -69.96141106 23.61732402 -68.01953125 14.85546875 C-64.54251097 5.30109251 -58.43241584 -0.28481251 -49.609375 -4.9921875 C-33.29530719 -11.79513211 -14.72149281 -9.32281936 0 0 Z " fill="#10213A" transform="translate(577.66796875,416.21875)"/>
<path d="M0 0 C7.59 0 15.18 0 23 0 C23 30.36 23 60.72 23 92 C38.84 92 54.68 92 71 92 C71 98.6 71 105.2 71 112 C47.57 112 24.14 112 0 112 C0 75.04 0 38.08 0 0 Z " fill="#11223A" transform="translate(612,410)"/>
<path d="M0 0 C24.75 0 49.5 0 75 0 C75 5.61 75 11.22 75 17 C65.76 17 56.52 17 47 17 C47 47.03 47 77.06 47 108 C40.73 108 34.46 108 28 108 C28 77.97 28 47.94 28 17 C18.76 17 9.52 17 0 17 C0 11.39 0 5.78 0 0 Z " fill="#0E1F38" transform="translate(784,410)"/>
<path d="M0 0 C27.03881701 0 27.03881701 0 34.62109375 6.11328125 C45.11044088 18.81328648 44.98652025 32.06303386 44 48 C42.90202348 57.00380748 39.05541581 64.25894988 32 70 C21.42858943 76.23175106 13.06988071 75 0 75 C0 50.25 0 25.5 0 0 Z " fill="#FEFEFE" transform="translate(893,427)"/>
<path d="M0 0 C6.6 0 13.2 0 20 0 C20 30.03 20 60.06 20 91 C33.53 91 47.06 91 61 91 C61 96.61 61 102.22 61 108 C40.87 108 20.74 108 0 108 C0 72.36 0 36.72 0 0 Z " fill="#0E1E37" transform="translate(728,410)"/>
<path d="M0 0 C4.45821927 3.56657542 6.84730098 6.05415417 8.1875 11.75 C8.84940175 17.70711571 7.5446867 21.89839164 4.1875 26.75 C0.55170505 30.29711702 -2.37879785 31.03578227 -7.3125 31.25 C-12.23853649 31.04279901 -15.14547182 30.23814876 -18.8125 26.75 C-22.43075536 21.98913768 -23.52629894 18.23498642 -23.26171875 12.25 C-22.27048129 6.73354806 -19.53735974 3.00444345 -15.0625 -0.25 C-9.83157911 -1.85951412 -5.06908505 -2.25292669 0 0 Z " fill="#0E1B31" transform="translate(553.8125,609.25)"/>
<path d="M0 0 C4.71878688 1.69164058 7.20582817 3.86048618 10 8 C11.81205684 13.43617053 11.7099836 18.98215186 9.8125 24.375 C7.42182199 27.83736126 4.7594239 30.12028805 1 32 C-4.28305214 32.52657873 -8.66862857 32.64191122 -13.5 30.3125 C-18.33609934 25.83910811 -19.60692545 21.96359941 -20.05859375 15.49609375 C-19.95438592 11.05684011 -18.64703508 7.68645879 -15.53125 4.49609375 C-10.31274998 0.00664888 -6.69509992 -0.62096205 0 0 Z " fill="#0F1B30" transform="translate(438,608)"/>
<path d="M0 0 C17.27596439 0 17.27596439 0 22 4 C25.36144827 7.62076 26.25419815 11.18667089 26.4375 16.0625 C26.23481032 20.37129039 25.55629196 23.42119126 23 27 C15.27036401 33.08503258 10.53814889 32 0 32 C0 21.44 0 10.88 0 0 Z " fill="#0C182B" transform="translate(496,608)"/>
<path d="M0 0 C16.41935484 0 16.41935484 0 22.3125 4.9375 C25.90661467 9.33030681 26.43977057 12.88487006 26.31640625 18.4609375 C25.80770845 22.54308035 24.48523525 24.7087425 22 28 C15.015594 33.2383045 9.06917776 32 0 32 C0 21.44 0 10.88 0 0 Z " fill="#0A182D" transform="translate(793,608)"/>
<path d="M0 0 C1.98 0 3.96 0 6 0 C9.3 6.27 12.6 12.54 16 19 C19.3 12.73 22.6 6.46 26 0 C28.31 0 30.62 0 33 0 C33 10.56 33 21.12 33 32 C31.02 32 29.04 32 27 32 C26.67 26.06 26.34 20.12 26 14 C23.69 18.29 21.38 22.58 19 27 C17.02 27 15.04 27 13 27 C11.02 23.04 9.04 19.08 7 15 C6.67 20.61 6.34 26.22 6 32 C4.02 32 2.04 32 0 32 C0 21.44 0 10.88 0 0 Z " fill="#121D30" transform="translate(671,608)"/>
<path d="M0 0 C2.701875 -0.0825 5.40375 -0.165 8.1875 -0.25 C9.02949951 -0.28641602 9.87149902 -0.32283203 10.73901367 -0.36035156 C14.67603679 -0.41837972 16.56872297 -0.27286024 19.98828125 1.890625 C22.59053841 4.61920532 22.95361529 5.50832204 23.3125 9.3125 C22.95271042 13.55801703 22.01906749 15.06972861 19 18 C18.34 18 17.68 18 17 18 C17.433125 18.77085937 17.86625 19.54171875 18.3125 20.3359375 C18.869375 21.33882812 19.42625 22.34171875 20 23.375 C20.556875 24.37273438 21.11375 25.37046875 21.6875 26.3984375 C23 29 23 29 23 31 C20.375 31.625 20.375 31.625 17 31 C15.24255619 28.52900758 13.91298977 26.01198761 12.58984375 23.28515625 C10.96961031 20.39338038 10.96961031 20.39338038 6 20 C6 23.63 6 27.26 6 31 C4.02 31 2.04 31 0 31 C0 20.77 0 10.54 0 0 Z " fill="#0A1222" transform="translate(765,555)"/>
<path d="M0 0 C6 0 6 0 7.85864258 1.62060547 C8.61890747 2.73266357 8.61890747 2.73266357 9.39453125 3.8671875 C9.95720703 4.67027344 10.51988281 5.47335937 11.09960938 6.30078125 C11.94749023 7.57501953 11.94749023 7.57501953 12.8125 8.875 C13.39708984 9.71675781 13.98167969 10.55851563 14.58398438 11.42578125 C18.67745536 17.35491071 18.67745536 17.35491071 20 20 C20.33 13.4 20.66 6.8 21 0 C22.98 0 24.96 0 27 0 C27 10.56 27 21.12 27 32 C21 32 21 32 19.14135742 30.36352539 C18.63451416 29.61578857 18.1276709 28.86805176 17.60546875 28.09765625 C17.04279297 27.29005859 16.48011719 26.48246094 15.90039062 25.65039062 C15.33513672 24.79638672 14.76988281 23.94238281 14.1875 23.0625 C13.03516027 21.38671598 11.88281673 19.71093459 10.73046875 18.03515625 C9.97866333 16.91185913 9.97866333 16.91185913 9.21166992 15.76586914 C8.11903432 14.05803965 8.11903432 14.05803965 7 13 C6.67 19.27 6.34 25.54 6 32 C4.02 32 2.04 32 0 32 C0 21.44 0 10.88 0 0 Z " fill="#11243E" transform="translate(458,608)"/>
<path d="M0 0 C5 0 5 0 6.9921875 1.8359375 C7.61351562 2.67382812 8.23484375 3.51171875 8.875 4.375 C9.89207031 5.72851562 9.89207031 5.72851562 10.9296875 7.109375 C13.99046517 11.38291363 17.02707608 15.66448595 20 20 C20.33 13.4 20.66 6.8 21 0 C22.98 0 24.96 0 27 0 C27 10.56 27 21.12 27 32 C25.02 32 23.04 32 21 32 C18.96124435 29.96124435 17.48463728 28.21075125 15.875 25.875 C15.45863281 25.30523438 15.04226563 24.73546875 14.61328125 24.1484375 C11.96825782 20.50012933 9.50126704 16.75190056 7 13 C6.67 19.27 6.34 25.54 6 32 C4.02 32 2.04 32 0 32 C0 21.44 0 10.88 0 0 Z " fill="#0D1A31" transform="translate(429,554)"/>
<path d="M0 0 C3.8053125 -0.12375 3.8053125 -0.12375 7.6875 -0.25 C8.87218872 -0.30462402 8.87218872 -0.30462402 10.08081055 -0.36035156 C13.90260839 -0.42027101 15.63709783 -0.23202728 18.95703125 1.890625 C21.59553593 4.61489369 21.95178579 5.48892942 22.3125 9.3125 C21.95271042 13.55801703 21.01906749 15.06972861 18 18 C17.34 18 16.68 18 16 18 C16.63228516 19.15628906 16.63228516 19.15628906 17.27734375 20.3359375 C17.82519531 21.33882812 18.37304688 22.34171875 18.9375 23.375 C19.48277344 24.37273438 20.02804687 25.37046875 20.58984375 26.3984375 C21.4149759 27.92070346 22.22564391 29.45128783 23 31 C20.69 31 18.38 31 16 31 C15.16151196 29.54462432 14.32936066 28.08559627 13.5 26.625 C13.0359375 25.81289063 12.571875 25.00078125 12.09375 24.1640625 C11 22 11 22 11 20 C9.02 20 7.04 20 5 20 C5 23.63 5 27.26 5 31 C3.35 31 1.7 31 0 31 C0 20.77 0 10.54 0 0 Z " fill="#0E2038" transform="translate(553,555)"/>
<path d="M0 0 C5 0 5 0 7.02734375 1.87109375 C7.97287109 3.14146484 7.97287109 3.14146484 8.9375 4.4375 C9.95650391 5.79294922 9.95650391 5.79294922 10.99609375 7.17578125 C13.75530141 11.06448911 16.41487467 14.99305574 19 19 C19.33 12.73 19.66 6.46 20 0 C21.98 0 23.96 0 26 0 C26 10.56 26 21.12 26 32 C24.35 32 22.7 32 21 32 C18.71875 29.62109375 18.71875 29.62109375 16.5 26.4375 C15.7678125 25.40496094 15.035625 24.37242187 14.28125 23.30859375 C13.5284375 22.21675781 12.775625 21.12492188 12 20 C10.35 17.69 8.7 15.38 7 13 C6.67 19.27 6.34 25.54 6 32 C4.02 32 2.04 32 0 32 C0 21.44 0 10.88 0 0 Z " fill="#111C30" transform="translate(571,608)"/>
<path d="M0 0 C1.98 0 3.96 0 6 0 C9.0566943 7.1839359 11.97597047 14.41423607 14.8125 21.6875 C15.12646729 22.48978027 15.44043457 23.29206055 15.76391602 24.11865234 C18 29.87779296 18 29.87779296 18 31 C16.02 31 14.04 31 12 31 C11.773125 30.030625 11.54625 29.06125 11.3125 28.0625 C9.3101582 24.70618959 9.3101582 24.70618959 5.90625 24.37890625 C2.59668756 24.14507847 -0.68256258 24.00946487 -4 24 C-4.144375 24.969375 -4.28875 25.93875 -4.4375 26.9375 C-5 30 -5 30 -6 31 C-7.99958364 31.04080783 -10.00045254 31.04254356 -12 31 C-8.14784106 20.60463492 -4.16308896 10.27485786 0 0 Z " fill="#111D32" transform="translate(628,555)"/>
<path d="M0 0 C6.93 0 13.86 0 21 0 C21 1.65 21 3.3 21 5 C16.05 5 11.1 5 6 5 C6 7.31 6 9.62 6 12 C10.29 12 14.58 12 19 12 C19 13.98 19 15.96 19 18 C14.71 18 10.42 18 6 18 C6 20.64 6 23.28 6 26 C10.95 26 15.9 26 21 26 C21 27.65 21 29.3 21 31 C14.07 31 7.14 31 0 31 C0 20.77 0 10.54 0 0 Z " fill="#040B1B" transform="translate(521,555)"/>
<path d="M0 0 C1.98 0 3.96 0 6 0 C6.01458252 0.71655762 6.02916504 1.43311523 6.04418945 2.17138672 C6.11849 5.40647983 6.21520861 8.64052019 6.3125 11.875 C6.33505859 13.00292969 6.35761719 14.13085938 6.38085938 15.29296875 C6.41630859 16.36933594 6.45175781 17.44570313 6.48828125 18.5546875 C6.51446533 19.54968262 6.54064941 20.54467773 6.56762695 21.56982422 C6.78165161 22.77276123 6.78165161 22.77276123 7 24 C9.90585687 26.38798682 9.90585687 26.38798682 13.625 25.6875 C16.82504312 25.35886877 16.82504312 25.35886877 18 24 C18.15764405 22.22130274 18.25100677 20.43681524 18.31640625 18.65234375 C18.35830078 17.57275391 18.40019531 16.49316406 18.44335938 15.38085938 C18.48267578 14.24455078 18.52199219 13.10824219 18.5625 11.9375 C18.62727539 10.22723633 18.62727539 10.22723633 18.69335938 8.48242188 C18.79982839 5.65507805 18.90184207 2.82764262 19 0 C20.98 0 22.96 0 25 0 C25.11668214 3.87474457 25.18741231 7.74903396 25.25 11.625 C25.30027344 13.26662109 25.30027344 13.26662109 25.3515625 14.94140625 C25.42826003 21.26895238 25.36816852 25.24640484 21 30 C17.02204024 32.43097541 12.55731483 32.72239237 8 32 C4.58190429 30.29095214 2.57376691 29.1454664 0.84814453 25.70043945 C-0.0634874 22.79786008 -0.22922921 20.51601423 -0.1953125 17.48046875 C-0.18564453 15.9480957 -0.18564453 15.9480957 -0.17578125 14.38476562 C-0.15902344 13.32966797 -0.14226562 12.27457031 -0.125 11.1875 C-0.11597656 10.11306641 -0.10695313 9.03863281 -0.09765625 7.93164062 C-0.07415306 5.28753146 -0.04129575 2.64388128 0 0 Z " fill="#091225" transform="translate(393,555)"/>
<path d="M0 0 C3.85109982 1.3550166 5.50182233 2.0262891 7.375 5.6875 C7.58125 6.450625 7.7875 7.21375 8 8 C5.6875 8.6875 5.6875 8.6875 3 9 C2.319375 8.2884375 2.319375 8.2884375 1.625 7.5625 C-0.0683464 5.59255652 -0.0683464 5.59255652 -3.6875 5.8125 C-4.780625 5.874375 -5.87375 5.93625 -7 6 C-7.33 7.65 -7.66 9.3 -8 11 C-7.18015625 11.24234375 -6.3603125 11.4846875 -5.515625 11.734375 C-4.43796875 12.06953125 -3.3603125 12.4046875 -2.25 12.75 C-1.18265625 13.07484375 -0.1153125 13.3996875 0.984375 13.734375 C4.18805365 15.07892407 5.82710565 16.31553845 8 19 C9.0625 22.375 9.0625 22.375 9 26 C7.06863831 29.53163281 4.87643934 31.70785355 1 33 C-4.58635614 33.36631844 -8.20724794 33.23232115 -13 30 C-14.875 27.3125 -14.875 27.3125 -16 25 C-14.35 24.34 -12.7 23.68 -11 23 C-9.948125 23.99 -9.948125 23.99 -8.875 25 C-5.53956856 27.32030013 -3.97288453 27.44143161 0 27 C0.66 26.67 1.32 26.34 2 26 C1.505 23.525 1.505 23.525 1 21 C0.18015625 20.76925781 -0.6396875 20.53851562 -1.484375 20.30078125 C-10.18964547 17.6662915 -10.18964547 17.6662915 -13.8125 14.6875 C-15.45056293 10.98030494 -15.1236489 8.86254308 -14 5 C-9.94518161 0.02957745 -6.25168725 -0.63911301 0 0 Z " fill="#101D33" transform="translate(932,554)"/>
<path d="M0 0 C2.44692805 2.02745467 3.74295295 3.99943469 5.1875 6.8125 C2.9375 7.5 2.9375 7.5 0.1875 7.8125 C-0.7096875 7.1009375 -0.7096875 7.1009375 -1.625 6.375 C-4.96604562 3.98853884 -7.77011597 4.6103808 -11.8125 4.8125 C-11.81554634 7.25004817 -11.81554634 7.25004817 -10.8125 9.8125 C-7.93043796 11.37413703 -7.93043796 11.37413703 -4.4375 12.375 C2.98946747 14.75459379 2.98946747 14.75459379 5.1875 18.8125 C5.6875 22.25 5.6875 22.25 5.1875 25.8125 C2.64612841 28.97204305 1.04127341 30.52790886 -2.8125 31.8125 C-8.39885614 32.17881844 -12.01974794 32.04482115 -16.8125 28.8125 C-18.6875 26.125 -18.6875 26.125 -19.8125 23.8125 C-17.8325 23.1525 -15.8525 22.4925 -13.8125 21.8125 C-13.0390625 22.8025 -13.0390625 22.8025 -12.25 23.8125 C-9.01254245 26.46887543 -6.88697719 26.12592132 -2.8125 25.8125 C-2.1525 23.8325 -1.4925 21.8525 -0.8125 19.8125 C-1.54855469 19.63074219 -2.28460937 19.44898438 -3.04296875 19.26171875 C-13.07579902 16.67730408 -13.07579902 16.67730408 -16.8125 13.8125 C-18.40995879 10.61758241 -18.32066842 7.28040611 -17.8125 3.8125 C-13.4850464 -2.00717898 -6.43017529 -2.7149629 0 0 Z " fill="#0C1628" transform="translate(602.8125,555.1875)"/>
<path d="M0 0 C6.93 0 13.86 0 21 0 C21 1.98 21 3.96 21 6 C15.72 6 10.44 6 5 6 C5 8.64 5 11.28 5 14 C9.62 14 14.24 14 19 14 C19 15.65 19 17.3 19 19 C14.38 19 9.76 19 5 19 C5 21.64 5 24.28 5 27 C10.28 27 15.56 27 21 27 C21 28.65 21 30.3 21 32 C14.07 32 7.14 32 0 32 C0 21.44 0 10.88 0 0 Z " fill="#142946" transform="translate(734,554)"/>
<path d="M0 0 C5.51724138 2.75862069 5.51724138 2.75862069 6.875 6.25 C6.91625 6.8275 6.9575 7.405 7 8 C4.6875 8.6875 4.6875 8.6875 2 9 C1.319375 8.2884375 1.319375 8.2884375 0.625 7.5625 C-1.0683464 5.59255652 -1.0683464 5.59255652 -4.6875 5.8125 C-5.780625 5.874375 -6.87375 5.93625 -8 6 C-8.33 7.65 -8.66 9.3 -9 11 C-8.18015625 11.24234375 -7.3603125 11.4846875 -6.515625 11.734375 C-5.43796875 12.06953125 -4.3603125 12.4046875 -3.25 12.75 C-2.18265625 13.07484375 -1.1153125 13.3996875 -0.015625 13.734375 C3.18985762 15.07968118 4.8388935 16.30115338 7 19 C7.84213994 22.36855977 8.28441764 24.86232946 7.4375 28.25 C4.84117425 31.4107444 1.84088038 32.72666714 -2.18359375 33.32421875 C-7.5915629 33.58868942 -10.81045213 32.6786274 -15 29 C-16.375 26.75 -16.375 26.75 -17 25 C-15.35 24.34 -13.7 23.68 -12 23 C-10.948125 23.99 -10.948125 23.99 -9.875 25 C-6.53956856 27.32030013 -4.97288453 27.44143161 -1 27 C-0.34 26.67 0.32 26.34 1 26 C0.505 23.525 0.505 23.525 0 21 C-1.24716797 20.61908203 -1.24716797 20.61908203 -2.51953125 20.23046875 C-3.60621094 19.88628906 -4.69289063 19.54210937 -5.8125 19.1875 C-7.43091797 18.68283203 -7.43091797 18.68283203 -9.08203125 18.16796875 C-11.86052412 17.0558277 -13.24653534 16.37718028 -15 14 C-15.79203917 10.64906504 -16.30520221 8.09872797 -15.375 4.75 C-11.33814608 -0.38781407 -6.13639027 -0.98139106 0 0 Z " fill="#0C1322" transform="translate(716,554)"/>
<path d="M0 0 C6.6 0 13.2 0 20 0 C20 1.65 20 3.3 20 5 C15.05 5 10.1 5 5 5 C5 7.64 5 10.28 5 13 C9.62 13 14.24 13 19 13 C19 14.65 19 16.3 19 18 C14.38 18 9.76 18 5 18 C5 20.97 5 23.94 5 27 C10.28 27 15.56 27 21 27 C21 28.65 21 30.3 21 32 C14.07 32 7.14 32 0 32 C0 21.44 0 10.88 0 0 Z " fill="#0C192E" transform="translate(762,608)"/>
<path d="M0 0 C6.93 0 13.86 0 21 0 C21 1.65 21 3.3 21 5 C15.72 5 10.44 5 5 5 C5 7.64 5 10.28 5 13 C9.62 13 14.24 13 19 13 C19 14.65 19 16.3 19 18 C14.38 18 9.76 18 5 18 C5 20.64 5 23.28 5 26 C10.28 26 15.56 26 21 26 C21 27.65 21 29.3 21 31 C14.07 31 7.14 31 0 31 C0 20.77 0 10.54 0 0 Z " fill="#1B2C45" transform="translate(887,555)"/>
<path d="M0 0 C4.13947368 2.54013158 4.13947368 2.54013158 5.75 4.6875 C5.75 5.6775 5.75 6.6675 5.75 7.6875 C3.5625 8.4375 3.5625 8.4375 0.75 8.6875 C-0.03375 8.0275 -0.8175 7.3675 -1.625 6.6875 C-4.1807107 4.33077609 -4.1807107 4.33077609 -7.875 4.625 C-11.29610439 5.39931198 -11.29610439 5.39931198 -13.1875 7.75 C-14.9157707 12.52816018 -14.8131516 16.69480974 -13.4375 21.5625 C-12.29443152 23.9870233 -12.29443152 23.9870233 -9.25 25.6875 C-3.48292261 25.55220655 -3.48292261 25.55220655 1.25 22.625 C1.9925 21.6659375 1.9925 21.6659375 2.75 20.6875 C4.07 21.3475 5.39 22.0075 6.75 22.6875 C4.1776723 27.44630624 1.92201583 29.96349472 -3.25 31.6875 C-7.98039335 32.07523716 -10.30546399 32.16867872 -14.5625 30 C-19.68746 25.5901507 -21.0188065 21.46182206 -21.5625 14.9375 C-21.5006049 10.20694583 -19.87469033 6.57526657 -17.25 2.6875 C-12.26437426 -1.9959666 -6.27057257 -2.53234661 0 0 Z " fill="#0D192E" transform="translate(870.25,555.3125)"/>
<path d="M0 0 C1.98 0 3.96 0 6 0 C8.64 7.59 11.28 15.18 14 23 C16.21389693 17.30149798 16.21389693 17.30149798 18.42724609 11.6027832 C19.93344321 7.7277804 21.44511102 3.85581056 23 0 C24.98 0 26.96 0 29 0 C26.96388077 7.16336694 24.55198394 14.11508931 21.875 21.0625 C21.51535156 22.01060547 21.15570313 22.95871094 20.78515625 23.93554688 C18.13109756 30.86890244 18.13109756 30.86890244 17 32 C15.00041636 32.04080783 12.99954746 32.04254356 11 32 C0 4.19101124 0 4.19101124 0 0 Z " fill="#0B1527" transform="translate(483,554)"/>
<path d="M0 0 C3.33761045 2.15090451 4.73470933 3.20412799 6 7 C6.53094699 11.64796219 6.64784823 14.96344284 4.125 19 C1.39737017 21.56718101 0.4581425 21.94813481 -3.3125 22.375 C-7 22 -7 22 -9.875 20.0625 C-12.63702637 16.08193258 -13.30624537 12.81242717 -13 8 C-10.48097757 1.90131411 -6.64329885 -0.94904269 0 0 Z " fill="#F9FAFA" transform="translate(437,613)"/>
<path d="M0 0 C1.98 0 3.96 0 6 0 C6.20157715 0.55461914 6.4031543 1.10923828 6.61083984 1.68066406 C7.52976718 4.20467929 8.45234535 6.72734503 9.375 9.25 C9.69210937 10.12269531 10.00921875 10.99539063 10.3359375 11.89453125 C10.6453125 12.73886719 10.9546875 13.58320312 11.2734375 14.453125 C11.55622559 15.22817383 11.83901367 16.00322266 12.13037109 16.80175781 C12.96790783 18.91887761 13.98179923 20.96359846 15 23 C17.64 15.74 20.28 8.48 23 1 C24.98 1 26.96 1 29 1 C26.96150996 8.19386557 24.51843632 15.15709165 21.8125 22.125 C21.44447266 23.08148437 21.07644531 24.03796875 20.69726562 25.0234375 C19.80144555 27.35024289 18.90232227 29.67571021 18 32 C15.69 32 13.38 32 11 32 C9.59170048 28.08648999 8.18593173 24.17208295 6.7824707 20.25683594 C6.30497059 18.92585903 5.82678756 17.59512691 5.34790039 16.26464844 C4.65850741 14.34895205 3.97159909 12.43238017 3.28515625 10.515625 C2.66459351 8.78747559 2.66459351 8.78747559 2.03149414 7.02441406 C1.23363791 4.68504294 0.54003184 2.40818028 0 0 Z " fill="#0C1527" transform="translate(795,554)"/>
<path d="M0 0 C3.49928559 2.04675195 5.42354261 3.25781767 6.703125 7.125 C7.49394273 12.21374017 6.97531239 15.64329257 4 20 C0.2626144 22.4915904 -1.57331583 22.45793285 -6 22 C-9.38939556 19.86320715 -10.72582557 18.8225233 -12 15 C-12.34547151 9.64519163 -12.46362011 6.3615957 -9 2 C-5.45870816 -0.36086122 -4.17249782 -0.57269578 0 0 Z " fill="#F9FAFA" transform="translate(549,613)"/>
<path d="M0 0 C7.59 0 15.18 0 23 0 C23 1.65 23 3.3 23 5 C20.03 5 17.06 5 14 5 C14 13.91 14 22.82 14 32 C12.02 32 10.04 32 8 32 C8 23.09 8 14.18 8 5 C5.36 5 2.72 5 0 5 C0 3.35 0 1.7 0 0 Z " fill="#0D192D" transform="translate(730,608)"/>
<path d="M0 0 C9 1 9 1 12.0625 2.9375 C14.81114666 7.28213505 14.9050515 10.98930579 14 16 C11.89495409 19.55680172 10.91593192 20.69468936 7 22 C4.69 22 2.38 22 0 22 C0 14.74 0 7.48 0 0 Z " fill="#F9FAFA" transform="translate(502,613)"/>
<path d="M0 0 C9 1 9 1 12.0625 2.9375 C14.83024854 7.31232834 14.85231877 10.96056185 14 16 C12.625 19.0625 12.625 19.0625 10 21 C5.05 21.495 5.05 21.495 0 22 C0 14.74 0 7.48 0 0 Z " fill="#F9FAFA" transform="translate(799,613)"/>
<path d="M0 0 C1.98 0 3.96 0 6 0 C6 8.91 6 17.82 6 27 C10.29 27 14.58 27 19 27 C19 28.65 19 30.3 19 32 C12.73 32 6.46 32 0 32 C0 21.44 0 10.88 0 0 Z " fill="#0A172B" transform="translate(625,608)"/>
<path d="M0 0 C1.98 0 3.96 0 6 0 C6 8.91 6 17.82 6 27 C10.29 27 14.58 27 19 27 C19 28.65 19 30.3 19 32 C12.73 32 6.46 32 0 32 C0 21.44 0 10.88 0 0 Z " fill="#152235" transform="translate(655,554)"/>
<path d="M0 0 C1.98 0 3.96 0 6 0 C6 10.56 6 21.12 6 32 C4.02 32 2.04 32 0 32 C-2.65777049 29.34222951 -3.56953721 26.45695173 -5 23 C-5.65288627 21.65986503 -6.31225595 20.32258472 -7 19 C-6.34 18.34 -5.68 17.68 -5 17 C-4.525625 17.495 -4.05125 17.99 -3.5625 18.5 C-2.24076302 20.11542197 -2.24076302 20.11542197 -1 20 C-0.67 13.4 -0.34 6.8 0 0 Z " fill="#122540" transform="translate(450,554)"/>
<path d="M0 0 C1.65 0 3.3 0 5 0 C5 8.91 5 17.82 5 27 C9.62 27 14.24 27 19 27 C19 28.65 19 30.3 19 32 C12.73 32 6.46 32 0 32 C0 21.44 0 10.88 0 0 Z " fill="#000003" transform="translate(394,608)"/>
<path d="M0 0 C1.98 0 3.96 0 6 0 C6 10.56 6 21.12 6 32 C4.35 32 2.7 32 1 32 C-1.67477931 29.32522069 -2.6464114 26.507025 -4 23 C-4 22.01 -4 21.02 -4 20 C-3.01 20 -2.02 20 -1 20 C-0.67 13.4 -0.34 6.8 0 0 Z " fill="#152237" transform="translate(591,608)"/>
<path d="M0 0 C4.95 0 9.9 0 15 0 C15 0.33 15 0.66 15 1 C10.38 1 5.76 1 1 1 C1 10.57 1 20.14 1 30 C1.99 30 2.98 30 4 30 C3.98839844 29.21753906 3.97679687 28.43507813 3.96484375 27.62890625 C3.95582031 26.61699219 3.94679688 25.60507812 3.9375 24.5625 C3.92589844 23.55316406 3.91429687 22.54382813 3.90234375 21.50390625 C4 19 4 19 5 18 C6.84599688 17.60545777 8.70225822 17.25823134 10.5625 16.9375 C12.08037109 16.67259766 12.08037109 16.67259766 13.62890625 16.40234375 C14.80259766 16.20318359 14.80259766 16.20318359 16 16 C15.67 15.01 15.34 14.02 15 13 C15.66 12.34 16.32 11.68 17 11 C17.66 11.33 18.32 11.66 19 12 C19.35606813 7.03448675 19.35606813 7.03448675 17.5 2.5625 C17.005 2.046875 16.51 1.53125 16 1 C19.16115776 2.36983503 19.9927092 2.9890638 22 6 C22.47043558 10.23392019 22.44127101 12.30867543 20.125 15.9375 C18 18 18 18 16 18 C16.63228516 19.15628906 16.63228516 19.15628906 17.27734375 20.3359375 C17.82519531 21.33882812 18.37304688 22.34171875 18.9375 23.375 C19.48277344 24.37273438 20.02804687 25.37046875 20.58984375 26.3984375 C21.4149759 27.92070346 22.22564391 29.45128783 23 31 C20.69 31 18.38 31 16 31 C15.16151196 29.54462432 14.32936066 28.08559627 13.5 26.625 C13.0359375 25.81289063 12.571875 25.00078125 12.09375 24.1640625 C11 22 11 22 11 20 C9.02 20 7.04 20 5 20 C5 23.63 5 27.26 5 31 C3.35 31 1.7 31 0 31 C0 20.77 0 10.54 0 0 Z " fill="#050C1A" transform="translate(553,555)"/>
<path d="M0 0 C1.98 0 3.96 0 6 0 C6 10.56 6 21.12 6 32 C4.02 32 2.04 32 0 32 C0 21.44 0 10.88 0 0 Z " fill="#071328" transform="translate(715,608)"/>
<path d="M0 0 C1.98 0 3.96 0 6 0 C6 10.23 6 20.46 6 31 C4.02 31 2.04 31 0 31 C0 20.77 0 10.54 0 0 Z " fill="#010919" transform="translate(467,555)"/>
<path d="M0 0 C6.93 0 13.86 0 21 0 C21 1.32 21 2.64 21 4 C15.72 4 10.44 4 5 4 C5 3.67 5 3.34 5 3 C9.62 3 14.24 3 19 3 C19 2.34 19 1.68 19 1 C13.06 1 7.12 1 1 1 C1 10.57 1 20.14 1 30 C6.94 30 12.88 30 19 30 C19 29.34 19 28.68 19 28 C18.00097656 28.01160156 17.00195312 28.02320313 15.97265625 28.03515625 C14.68230469 28.04417969 13.39195312 28.05320312 12.0625 28.0625 C10.77472656 28.07410156 9.48695313 28.08570313 8.16015625 28.09765625 C5 28 5 28 4 27 C3.90176063 25.33570949 3.87026369 23.66718069 3.875 22 C3.87113281 20.63875 3.87113281 20.63875 3.8671875 19.25 C4 17 4 17 5 16 C7.98889359 15.54234333 10.98969648 15.29679049 14 15 C11.03 14.67 8.06 14.34 5 14 C5 13.67 5 13.34 5 13 C9.62 13 14.24 13 19 13 C19 14.65 19 16.3 19 18 C14.38 18 9.76 18 5 18 C5 20.64 5 23.28 5 26 C10.28 26 15.56 26 21 26 C21 27.65 21 29.3 21 31 C14.07 31 7.14 31 0 31 C0 20.77 0 10.54 0 0 Z " fill="#030816" transform="translate(887,555)"/>
<path d="M0 0 C2.46180455 2.03978091 4.30608332 4.23426233 6.1875 6.8125 C5.1975 7.3075 5.1975 7.3075 4.1875 7.8125 C4.1875 7.1525 4.1875 6.4925 4.1875 5.8125 C3.1975 5.8125 2.2075 5.8125 1.1875 5.8125 C1.64125 6.26625 2.095 6.72 2.5625 7.1875 C3.77083333 8.39583333 4.97916667 9.60416667 6.1875 10.8125 C5.1975 13.1225 4.2075 15.4325 3.1875 17.8125 C2.8575 17.8125 2.5275 17.8125 2.1875 17.8125 C2.10113281 17.20921875 2.01476562 16.6059375 1.92578125 15.984375 C1.2117854 11.92311422 0.70621504 9.4032588 -2.0625 6.25 C-5.33919737 4.53718092 -7.1637653 4.26907143 -10.8125 4.8125 C-13.02213918 5.8843171 -13.02213918 5.8843171 -14.8125 7.8125 C-15.72593896 10.75765652 -15.72593896 10.75765652 -16.0625 14 C-16.28679688 15.63001953 -16.28679688 15.63001953 -16.515625 17.29296875 C-16.61359375 18.12441406 -16.7115625 18.95585938 -16.8125 19.8125 C-17.1425 19.8125 -17.4725 19.8125 -17.8125 19.8125 C-18.1425 16.8425 -18.4725 13.8725 -18.8125 10.8125 C-19.8025 11.1425 -20.7925 11.4725 -21.8125 11.8125 C-21.36036421 6.95204021 -20.28108739 4.28108739 -16.8125 0.8125 C-11.7887775 -2.2017335 -5.31825988 -2.24548751 0 0 Z " fill="#11213B" transform="translate(553.8125,609.1875)"/>
<path d="M0 0 C1.65 0 3.3 0 5 0 C5.89690912 1.55002751 6.7668197 3.11569918 7.625 4.6875 C8.11226562 5.55761719 8.59953125 6.42773438 9.1015625 7.32421875 C10 10 10 10 9.1484375 12.83203125 C8.76945313 13.54746094 8.39046875 14.26289062 8 15 C7.34 14.34 6.68 13.68 6 13 C5.67 18.61 5.34 24.22 5 30 C3.35 30 1.7 30 0 30 C0 20.1 0 10.2 0 0 Z " fill="#112440" transform="translate(672,610)"/>
<path d="M0 0 C6.6 0 13.2 0 20 0 C20 1.32 20 2.64 20 4 C15.05 4 10.1 4 5 4 C5 3.67 5 3.34 5 3 C9.62 3 14.24 3 19 3 C19 2.34 19 1.68 19 1 C13.06 1 7.12 1 1 1 C1 10.57 1 20.14 1 30 C6.94 30 12.88 30 19 30 C19 29.34 19 28.68 19 28 C18.00097656 28.01160156 17.00195312 28.02320313 15.97265625 28.03515625 C14.68230469 28.04417969 13.39195312 28.05320312 12.0625 28.0625 C10.77472656 28.07410156 9.48695313 28.08570313 8.16015625 28.09765625 C5 28 5 28 4 27 C3.90176063 25.33570949 3.87026369 23.66718069 3.875 22 C3.87113281 20.63875 3.87113281 20.63875 3.8671875 19.25 C4 17 4 17 5 16 C7.18639453 15.92741054 9.37500389 15.91626217 11.5625 15.9375 C13.35880859 15.95103516 13.35880859 15.95103516 15.19140625 15.96484375 C16.11824219 15.97644531 17.04507813 15.98804688 18 16 C18 15.34 18 14.68 18 14 C13.71 14 9.42 14 5 14 C5 13.67 5 13.34 5 13 C9.62 13 14.24 13 19 13 C19 14.65 19 16.3 19 18 C14.38 18 9.76 18 5 18 C5 20.64 5 23.28 5 26 C10.28 26 15.56 26 21 26 C21 27.65 21 29.3 21 31 C14.07 31 7.14 31 0 31 C0 20.77 0 10.54 0 0 Z " fill="#020711" transform="translate(734,555)"/>
<path d="M0 0 C0.66 0 1.32 0 2 0 C2.66 2.31 3.32 4.62 4 7 C5.65 6.34 7.3 5.68 9 5 C11.16965398 8.25448097 12.36143262 11.5253585 13.625 15.1875 C13.96917969 16.16879883 13.96917969 16.16879883 14.3203125 17.16992188 C14.88395144 18.77864135 15.44247984 20.38914977 16 22 C14.02 22 12.04 22 10 22 C9.85046875 21.43410156 9.7009375 20.86820313 9.546875 20.28515625 C8.62626025 17.71736314 7.84988816 16.02545625 6 14 C1.98951226 12.97071259 -1.87443119 12.89621211 -6 13 C-5.01 12.34 -4.02 11.68 -3 11 C-2.60235737 9.01178687 -2.27571139 7.00875442 -2 5 C-1.37774395 3.31624835 -0.72455635 1.64232772 0 0 Z " fill="#13223A" transform="translate(630,564)"/>
<path d="M0 0 C1.65 0 3.3 0 5 0 C5 10.56 5 21.12 5 32 C3.35 32 1.7 32 0 32 C0 21.44 0 10.88 0 0 Z " fill="#0A1527" transform="translate(654,608)"/>
<path d="M0 0 C1.65 0 3.3 0 5 0 C5 10.23 5 20.46 5 31 C3.35 31 1.7 31 0 31 C0 20.77 0 10.54 0 0 Z " fill="#091428" transform="translate(834,555)"/>
<path d="M0 0 C-1.2065625 0.9590625 -1.2065625 0.9590625 -2.4375 1.9375 C-5.78174341 5.93427872 -6.05942488 8.89794989 -6 14 C-5.84040901 15.46165081 -5.6544318 16.92075348 -5.4375 18.375 C-5 22 -5 22 -7 25 C-11.60544559 19.56793597 -13.40364507 15.19641501 -13 8 C-12.20838821 4.49888769 -11.01897567 1.84329021 -8.1875 -0.5 C-5.24736727 -1.17203034 -2.91350455 -0.66216013 0 0 Z " fill="#101F37" transform="translate(431,613)"/>
<path d="M0 0 C-0.33 0.99 -0.66 1.98 -1 3 C-4.3 3 -7.6 3 -11 3 C-11.08082094 4.95766281 -11.13910778 6.91626728 -11.1875 8.875 C-11.22230469 9.96554687 -11.25710938 11.05609375 -11.29296875 12.1796875 C-11.19628906 13.11039063 -11.09960938 14.04109375 -11 15 C-10.01 15.66 -9.02 16.32 -8 17 C-8.99 17.33 -9.98 17.66 -11 18 C-11.33 21.63 -11.66 25.26 -12 29 C-12.99 29 -13.98 29 -15 29 C-15 19.43 -15 9.86 -15 0 C-2 -1 -2 -1 0 0 Z " fill="#0F233F" transform="translate(782,556)"/>
<path d="M0 0 C1.98 0 3.96 0 6 0 C6 7.26 6 14.52 6 22 C5.34 22 4.68 22 4 22 C3.67 22.66 3.34 23.32 3 24 C0.87719437 20.81579155 0.71980463 19.79462745 0.5859375 16.11328125 C0.54726563 15.17548828 0.50859375 14.23769531 0.46875 13.27148438 C0.4378125 12.29501953 0.406875 11.31855469 0.375 10.3125 C0.33632813 9.32443359 0.29765625 8.33636719 0.2578125 7.31835938 C0.16354133 4.87909293 0.07793782 2.43983405 0 0 Z " fill="#0A152A" transform="translate(412,555)"/>
<path d="M0 0 C0.99 0 1.98 0 3 0 C3 8.25 3 16.5 3 25 C9.93 25.495 9.93 25.495 17 26 C17 26.99 17 27.98 17 29 C11.39 29 5.78 29 0 29 C0 19.43 0 9.86 0 0 Z " fill="#122745" transform="translate(395,610)"/>
<path d="M0 0 C0.33 0 0.66 0 1 0 C1.33 6.6 1.66 13.2 2 20 C3.32 20.33 4.64 20.66 6 21 C4.10147234 27.5718265 4.10147234 27.5718265 1 30 C-4.80875184 31.14824164 -9.93554049 29.84875847 -15 27 C-15.33 26.01 -15.66 25.02 -16 24 C-12.04 24.99 -8.08 25.98 -4 27 C-4 26.34 -4 25.68 -4 25 C-3.01 24.34 -2.02 23.68 -1 23 C-0.49095616 20.5842887 -0.49095616 20.5842887 -0.48828125 17.7734375 C-0.45283203 16.7421875 -0.41738281 15.7109375 -0.38085938 14.6484375 C-0.34702148 13.02808594 -0.34702148 13.02808594 -0.3125 11.375 C-0.27833984 10.28703125 -0.24417969 9.1990625 -0.20898438 8.078125 C-0.12631666 5.38551937 -0.05722913 2.69324709 0 0 Z " fill="#112440" transform="translate(412,556)"/>
<path d="M0 0 C1.98 0.99 1.98 0.99 4 2 C3.34 2 2.68 2 2 2 C2 11.57 2 21.14 2 31 C2.66 31 3.32 31 4 31 C4 24.4 4 17.8 4 11 C6 13 6 13 6.22705078 14.97119141 C6.21657715 15.75671387 6.20610352 16.54223633 6.1953125 17.3515625 C6.18886719 18.20234375 6.18242187 19.053125 6.17578125 19.9296875 C6.15902344 20.81914063 6.14226562 21.70859375 6.125 22.625 C6.11597656 23.5221875 6.10695313 24.419375 6.09765625 25.34375 C6.0740497 27.56276586 6.0411231 29.78125077 6 32 C4.02 32 2.04 32 0 32 C0 21.44 0 10.88 0 0 Z " fill="#0B1529" transform="translate(458,608)"/>
<path d="M0 0 C6.93 0 13.86 0 21 0 C21 1.98 21 3.96 21 6 C15.72 6 10.44 6 5 6 C5 8.97 5 11.94 5 15 C9.29 15 13.58 15 18 15 C18 15.66 18 16.32 18 17 C17.07316406 17.06058594 16.14632812 17.12117187 15.19140625 17.18359375 C13.39509766 17.30927734 13.39509766 17.30927734 11.5625 17.4375 C10.36753906 17.51871094 9.17257812 17.59992187 7.94140625 17.68359375 C5.11429756 17.67656114 5.11429756 17.67656114 4 19 C3.63239269 21.32817964 3.29758419 23.6618385 3 26 C2.67 26 2.34 26 2 26 C2 19.4 2 12.8 2 6 C5.18824568 4.40587716 8.62896662 4.89825265 12.125 4.9375 C12.87910156 4.94201172 13.63320313 4.94652344 14.41015625 4.95117188 C16.27347127 4.96296501 18.13674555 4.98090058 20 5 C20 3.68 20 2.36 20 1 C13.4 1 6.8 1 0 1 C0 0.67 0 0.34 0 0 Z " fill="#324155" transform="translate(734,554)"/>
<path d="M0 0 C1.32 0 2.64 0 4 0 C4 0.66 4 1.32 4 2 C7.63 2 11.26 2 15 2 C15 2.66 15 3.32 15 4 C15.66 4.66 16.32 5.32 17 6 C12.38 6 7.76 6 3 6 C2.67 7.98 2.34 9.96 2 12 C1.67 12.33 1.34 12.66 1 13 C-0.98 13 -2.96 13 -5 13 C-3.35 8.71 -1.7 4.42 0 0 Z " fill="#071023" transform="translate(621,573)"/>
<path d="M0 0 C8.75 -0.125 8.75 -0.125 11 1 C11 3.31 11 5.62 11 8 C7.36576791 10.32590854 4.22911669 10.16265833 0 10 C0 6.7 0 3.4 0 0 Z " fill="#FAFBFB" transform="translate(558,560)"/>
<path d="M0 0 C6.27 0 12.54 0 19 0 C19.33 1.32 19.66 2.64 20 4 C15.05 4 10.1 4 5 4 C5 6.31 5 8.62 5 11 C9.29 11 13.58 11 18 11 C18 11.33 18 11.66 18 12 C12 12 6 12 0 12 C0 8.04 0 4.08 0 0 Z " fill="#304259" transform="translate(522,556)"/>
<path d="M0 0 C6.8359375 -0.1953125 6.8359375 -0.1953125 9 0 C9.66 0.66 10.32 1.32 11 2 C10.625 5.625 10.625 5.625 10 9 C6.52674819 10.1577506 3.63932552 10.06866652 0 10 C0 6.7 0 3.4 0 0 Z " fill="#FBFBFB" transform="translate(771,560)"/>
<path d="M0 0 C2.375 0.1875 2.375 0.1875 5 1 C7.38074641 4.85454181 7.45075979 8.56752875 7 13 C5.37404034 17.42132873 3.970023 20.353318 0 23 C-0.99 22.01 -1.98 21.02 -3 20 C-2.505 19.4225 -2.01 18.845 -1.5 18.25 C0.36980013 15.89599371 0.36980013 15.89599371 0 12 C0.66 12 1.32 12 2 12 C2 10.02 2 8.04 2 6 C2.66 5.67 3.32 5.34 4 5 C3.01 4.67 2.02 4.34 1 4 C0.3125 1.9375 0.3125 1.9375 0 0 Z " fill="#14253E" transform="translate(555,615)"/>
<path d="M0 0 C0.66 0.33 1.32 0.66 2 1 C1.67 1.66 1.34 2.32 1 3 C0.95977609 5.3329866 0.95679753 7.66706666 1 10 C2.32 10.66 3.64 11.32 5 12 C4.46375 11.2575 3.9275 10.515 3.375 9.75 C2.92125 8.8425 2.4675 7.935 2 7 C2.8125 4.6875 2.8125 4.6875 4 3 C4.33 4.65 4.66 6.3 5 8 C5.81984375 8.24234375 6.6396875 8.4846875 7.484375 8.734375 C8.56203125 9.06953125 9.6396875 9.4046875 10.75 9.75 C11.81734375 10.07484375 12.8846875 10.3996875 13.984375 10.734375 C17.18805365 12.07892407 18.82710565 13.31553845 21 16 C22.0625 19.375 22.0625 19.375 22 23 C20.57194509 25.39934226 19.00001615 26.99998385 17 29 C15.68 28.67 14.36 28.34 13 28 C13.804375 27.525625 14.60875 27.05125 15.4375 26.5625 C17.84753488 25.23099846 17.84753488 25.23099846 19 24 C19.07179964 22.48071962 19.08392007 20.95832518 19.0625 19.4375 C19.041875 17.973125 19.02125 16.50875 19 15 C16.03 14.34 13.06 13.68 10 13 C9.67 13.66 9.34 14.32 9 15 C4.94113045 14.76583445 2.64338634 14.54687839 -0.5 11.875 C-2.45486566 8.12817414 -1.99099581 6.0402137 -1 2 C-0.67 1.34 -0.34 0.68 0 0 Z " fill="#0D1323" transform="translate(919,557)"/>
<path d="M0 0 C1.98 0 3.96 0 6 0 C6 10.56 6 21.12 6 32 C4.02 32 2.04 32 0 32 C0 31.01 0 30.02 0 29 C1.32 29.66 2.64 30.32 4 31 C4 21.43 4 11.86 4 2 C3.01 2 2.02 2 1 2 C1 8.6 1 15.2 1 22 C0.67 22 0.34 22 0 22 C0 14.74 0 7.48 0 0 Z " fill="#272B36" transform="translate(450,554)"/>
<path d="M0 0 C1.98 0 3.96 0 6 0 C6 10.56 6 21.12 6 32 C4.02 32 2.04 32 0 32 C0.33 31.34 0.66 30.68 1 30 C1.99 30.33 2.98 30.66 4 31 C4 21.43 4 11.86 4 2 C3.01 2 2.02 2 1 2 C1 8.27 1 14.54 1 21 C0.67 21 0.34 21 0 21 C0 14.07 0 7.14 0 0 Z " fill="#111826" transform="translate(479,608)"/>
<path d="M0 0 C0.99 0.99 1.98 1.98 3 3 C3.66 3 4.32 3 5 3 C5 5.64 5 8.28 5 11 C9.62 11 14.24 11 19 11 C19 12.32 19 13.64 19 15 C12.73 15 6.46 15 0 15 C0 10.05 0 5.1 0 0 Z " fill="#1B2D47" transform="translate(522,570)"/>
<path d="M0 0 C1.98 0 3.96 0 6 0 C8.11293829 6.36539272 9.46048934 12.31006781 10 19 C9.34 19.33 8.68 19.66 8 20 C4.48777947 17.29116129 3.58481025 13.50043636 2.3125 9.4375 C2.08755859 8.75236328 1.86261719 8.06722656 1.63085938 7.36132812 C0 2.31012538 0 2.31012538 0 0 Z " fill="#0B1528" transform="translate(483,554)"/>
<path d="M0 0 C6.00738007 2.11070111 6.00738007 2.11070111 8 5 C8.78943517 8.33991804 9.18639121 10.98816201 8.5625 14.375 C5.91663129 17.12670346 2.7097046 16.76066422 -1 17 C-0.67 15.68 -0.34 14.36 0 13 C0.99 13 1.98 13 3 13 C3.41809201 10.16848027 3.41809201 10.16848027 3 7 C0.62157423 4.59593616 0.62157423 4.59593616 -2 3 C-1.34 3 -0.68 3 0 3 C0 2.01 0 1.02 0 0 Z " fill="#111E34" transform="translate(715,568)"/>
<path d="M0 0 C0.99 0 1.98 0 3 0 C3 9.57 3 19.14 3 29 C2.01 29 1.02 29 0 29 C0 19.43 0 9.86 0 0 Z " fill="#0F223E" transform="translate(468,556)"/>
<path d="M0 0 C2.16470425 4.16289279 2.07565912 7.52827693 1.625 12.125 C0.635 11.795 -0.355 11.465 -1.375 11.125 C-1.705 8.815 -2.035 6.505 -2.375 4.125 C-6.005 3.795 -9.635 3.465 -13.375 3.125 C-13.375 2.465 -13.375 1.805 -13.375 1.125 C-14.695 0.465 -16.015 -0.195 -17.375 -0.875 C-4.69450478 -2.60805821 -4.69450478 -2.60805821 0 0 Z " fill="#101F37" transform="translate(571.375,556.875)"/>
<path d="M0 0 C1.91491448 1.88491582 3.39344765 3.82642917 5 6 C4.01 6.495 4.01 6.495 3 7 C3 6.34 3 5.68 3 5 C2.01 5 1.02 5 0 5 C0.45375 5.45375 0.9075 5.9075 1.375 6.375 C2.58333333 7.58333333 3.79166667 8.79166667 5 10 C4.01 12.31 3.02 14.62 2 17 C1.67 17 1.34 17 1 17 C0.93683594 16.41992188 0.87367188 15.83984375 0.80859375 15.2421875 C0.05565259 10.43921545 -0.78015645 7.69274636 -4.625 4.5625 C-5.25664063 4.11003906 -5.88828125 3.65757812 -6.5390625 3.19140625 C-7.02117188 2.79824219 -7.50328125 2.40507813 -8 2 C-8 1.34 -8 0.68 -8 0 C-8.66 -0.33 -9.32 -0.66 -10 -1 C-6.14531755 -2.48257017 -3.67630892 -1.72561439 0 0 Z " fill="#0B1528" transform="translate(555,610)"/>
<path d="M0 0 C1.65 0 3.3 0 5 0 C5 1.32 5 2.64 5 4 C5.99 4.66 6.98 5.32 8 6 C7.67 6.66 7.34 7.32 7 8 C6.13375 7.525625 5.2675 7.05125 4.375 6.5625 C0.69143921 4.67598527 0.69143921 4.67598527 -5 4 C-5 11.26 -5 18.52 -5 26 C-2.69 26 -0.38 26 2 26 C2 26.33 2 26.66 2 27 C-0.64 27 -3.28 27 -6 27 C-7.21858107 24.56283785 -7.12925575 22.96725943 -7.1328125 20.24609375 C-7.13410156 19.30958984 -7.13539063 18.37308594 -7.13671875 17.40820312 C-7.13285156 16.42787109 -7.12898437 15.44753906 -7.125 14.4375 C-7.12886719 13.45330078 -7.13273438 12.46910156 -7.13671875 11.45507812 C-7.13542969 10.51986328 -7.13414062 9.58464844 -7.1328125 8.62109375 C-7.13168457 7.7592749 -7.13055664 6.89745605 -7.12939453 6.00952148 C-7 4 -7 4 -6 3 C-3.32941149 2.85884839 -0.67567762 2.95752893 2 3 C2 2.34 2 1.68 2 1 C1.34 0.67 0.68 0.34 0 0 Z " fill="#040C1C" transform="translate(804,609)"/>
<path d="M0 0 C0.515625 0.309375 1.03125 0.61875 1.5625 0.9375 C4.1293925 2.18828017 4.1293925 2.18828017 7.6875 2.5 C9.3271875 2.7475 9.3271875 2.7475 11 3 C11.33 3.66 11.66 4.32 12 5 C14.9719385 3.87548273 17.33440687 2.77706209 20 1 C19.04908327 3.50696229 18.06198622 4.94401245 16.0625 6.75 C11.42755825 8.64181296 6.93539037 8.72132628 2 8 C-0.6875 6 -0.6875 6 -2 4 C-1.34 3.67 -0.68 3.34 0 3 C0 2.01 0 1.02 0 0 Z " fill="#050C1D" transform="translate(426,632)"/>
<path d="M0 0 C0.86625 0.639375 1.7325 1.27875 2.625 1.9375 C5.9598812 3.97548296 8.16047478 4.63433093 12 5 C11.67 6.65 11.34 8.3 11 10 C5.21190227 9.74779531 1.17399994 9.43487494 -3 5 C-3.33 4.01 -3.66 3.02 -4 2 C-2.68 1.34 -1.36 0.68 0 0 Z " fill="#050C1B" transform="translate(920,577)"/>
<path d="M0 0 C2.86724686 0.57344937 3.8614515 0.8614515 6 3 C5.625 5.125 5.625 5.125 5 7 C4.67 6.01 4.34 5.02 4 4 C3.34 6.31 2.68 8.62 2 11 C1.67 11 1.34 11 1 11 C0.34 9.02 -0.32 7.04 -1 5 C-3.97 4.67 -6.94 4.34 -10 4 C-10 7.3 -10 10.6 -10 14 C-7.36 14 -4.72 14 -2 14 C-2.99 14.33 -3.98 14.66 -5 15 C-5 15.99 -5 16.98 -5 18 C-6.65 18 -8.3 18 -10 18 C-11.08489672 14.74530985 -11.13323992 12.29456791 -11.125 8.875 C-11.12757813 7.79992187 -11.13015625 6.72484375 -11.1328125 5.6171875 C-11 3 -11 3 -10 2 C-8.31391034 1.92794489 -6.62499341 1.91613932 -4.9375 1.9375 C-4.01839844 1.94652344 -3.09929688 1.95554687 -2.15234375 1.96484375 C-1.44207031 1.97644531 -0.73179687 1.98804688 0 2 C0 1.34 0 0.68 0 0 Z " fill="#1B2130" transform="translate(781,556)"/>
<path d="M0 0 C1.32 0.66 2.64 1.32 4 2 C4.5 5.125 4.5 5.125 4 9 C0.68880712 12.49252011 -3.57849309 15.12448375 -8 17 C-10.75 16.625 -10.75 16.625 -13 16 C-13 15.67 -13 15.34 -13 15 C-11.35 15 -9.7 15 -8 15 C-8 14.01 -8 13.02 -8 12 C-7.34 11.34 -6.68 10.68 -6 10 C-5.01 10 -4.02 10 -3 10 C-3 9.34 -3 8.68 -3 8 C-2.34 8 -1.68 8 -1 8 C-1.020625 7.05125 -1.04125 6.1025 -1.0625 5.125 C-1 2 -1 2 0 0 Z " fill="#10213B" transform="translate(784,559)"/>
<path d="M0 0 C1.98 0 3.96 0 6 0 C2.8459821 2.71595986 1.12615036 3.96846241 -3 5 C-3.33 12.26 -3.66 19.52 -4 27 C-4.99 27 -5.98 27 -7 27 C-7 18.75 -7 10.5 -7 2 C-4.69 2 -2.38 2 0 2 C0 1.34 0 0.68 0 0 Z " fill="#152A45" transform="translate(504,608)"/>
<path d="M0 0 C1.09054687 0.02320313 2.18109375 0.04640625 3.3046875 0.0703125 C4.40039062 0.08835937 5.49609375 0.10640625 6.625 0.125 C7.46804688 0.14820313 8.31109375 0.17140625 9.1796875 0.1953125 C5.11243316 2.9068154 2.0249264 2.77398738 -2.8203125 3.1953125 C-2.8203125 6.4953125 -2.8203125 9.7953125 -2.8203125 13.1953125 C4.1096875 13.6903125 4.1096875 13.6903125 11.1796875 14.1953125 C11.1796875 14.8553125 11.1796875 15.5153125 11.1796875 16.1953125 C5.5696875 16.1953125 -0.0403125 16.1953125 -5.8203125 16.1953125 C-4.95565123 0.34318914 -4.95565123 0.34318914 0 0 Z " fill="#112643" transform="translate(894.8203125,568.8046875)"/>
<path d="M0 0 C0.99 0.33 1.98 0.66 3 1 C2.979375 2.216875 2.95875 3.43375 2.9375 4.6875 C2.93175884 7.91977322 3.21233685 10.84934741 4 14 C3.34 14 2.68 14 2 14 C1.67 14.99 1.34 15.98 1 17 C-2.05913097 13.94086903 -2.96428389 12.45002304 -3.3125 8.0625 C-3.24052758 4.50967981 -2.58075402 2.58075402 0 0 Z " fill="#13233A" transform="translate(852,562)"/>
<path d="M0 0 C0.66 0.66 1.32 1.32 2 2 C0.68 2.33 -0.64 2.66 -2 3 C-1.030625 3.5775 -0.06125 4.155 0.9375 4.75 C4 7 4 7 4.875 9.25 C4.91625 9.8275 4.9575 10.405 5 11 C3.88625 9.7934375 3.88625 9.7934375 2.75 8.5625 C-1.69761553 4.80815788 -7.37490625 4.68343628 -13 5 C-13.99 5.66 -14.98 6.32 -16 7 C-15.0195412 4.41515408 -14.06077857 3.05156969 -11.9375 1.25 C-7.99291244 -0.4285479 -4.23973493 -0.64137444 0 0 Z " fill="#071123" transform="translate(438,608)"/>
<path d="M0 0 C0.33 0.99 0.66 1.98 1 3 C-0.4375 5.6875 -0.4375 5.6875 -2 8 C-1.34 8.66 -0.68 9.32 0 10 C-4.46414513 12.97609675 -8.76510735 12.6189403 -14 12 C-16.66981861 10.96963274 -17.87285516 10.01216404 -20 8 C-20 7.01 -20 6.02 -20 5 C-19.319375 5.639375 -18.63875 6.27875 -17.9375 6.9375 C-14.53591161 9.3258493 -12.09566299 9.67877153 -8 10 C-9.32 9.01 -10.64 8.02 -12 7 C-11.07767578 6.87044922 -11.07767578 6.87044922 -10.13671875 6.73828125 C-4.79246389 5.92508804 -4.79246389 5.92508804 -0.9375 2.375 C-0.628125 1.59125 -0.31875 0.8075 0 0 Z " fill="#070E1F" transform="translate(555,628)"/>
<path d="M0 0 C1.65 0 3.3 0 5 0 C5 8.91 5 17.82 5 27 C4.34 27 3.68 27 3 27 C3 18.75 3 10.5 3 2 C2.01 2 1.02 2 0 2 C0 1.34 0 0.68 0 0 Z " fill="#08152C" transform="translate(626,608)"/>
<path d="M0 0 C2.93200474 2.85276137 5.64315404 5.65079784 8 9 C7.67 9.66 7.34 10.32 7 11 C5.35 9.02 3.7 7.04 2 5 C2 9.05345102 3.58160112 10.8215329 6 14 C6.99 14.33 7.98 14.66 9 15 C9 16.65 9 18.3 9 20 C4.20920913 15.64473557 0.28423917 10.58415305 -3 5 C-3 4.01 -3 3.02 -3 2 C-2.01 2 -1.02 2 0 2 C0 1.34 0 0.68 0 0 Z " fill="#0B1325" transform="translate(469,617)"/>
<path d="M0 0 C2.97 0.99 5.94 1.98 9 3 C9 4.32 9 5.64 9 7 C9.66 7.45375 10.32 7.9075 11 8.375 C11.66 8.91125 12.32 9.4475 13 10 C13.25 13.1875 13.25 13.1875 13 16 C12.34 16.33 11.68 16.66 11 17 C11 15.02 11 13.04 11 11 C9.989375 10.566875 8.97875 10.13375 7.9375 9.6875 C7.30457031 9.41421875 6.67164063 9.1409375 6.01953125 8.859375 C4.68943029 8.29337459 3.35348549 7.74088613 2.01171875 7.203125 C-2.89375 5.2125 -2.89375 5.2125 -4 3 C-1.69 3.66 0.62 4.32 3 5 C3.33 4.67 3.66 4.34 4 4 C2.68 3.34 1.36 2.68 0 2 C0 1.34 0 0.68 0 0 Z " fill="#0A1223" transform="translate(706,565)"/>
<path d="M0 0 C0.66 0 1.32 0 2 0 C2.50615298 1.26839526 3.00469099 2.53983102 3.5 3.8125 C3.91765625 4.87404297 3.91765625 4.87404297 4.34375 5.95703125 C5 8 5 8 5 11 C2.36 11 -0.28 11 -3 11 C-2.44894091 7.0507432 -1.61064629 3.65079826 0 0 Z " fill="#F0F2F3" transform="translate(630,564)"/>
<path d="M0 0 C1.98 0 3.96 0 6 0 C6.53394179 1.4117783 7.05165104 2.82970244 7.5625 4.25 C7.85253906 5.03890625 8.14257812 5.8278125 8.44140625 6.640625 C9.04522837 9.19103452 8.8473932 10.55322229 8 13 C7.34 13 6.68 13 6 13 C5.67 12.01 5.34 11.02 5 10 C4.525625 9.5875 4.05125 9.175 3.5625 8.75 C1.25897767 6.170055 0.81120597 3.30722434 0 0 Z " fill="#13233B" transform="translate(795,554)"/>
<path d="M0 0 C1.32 0 2.64 0 4 0 C4 8.91 4 17.82 4 27 C0.58429368 23.58429368 0.60940339 23.03544826 0.48828125 18.45703125 C0.45283203 17.38388672 0.41738281 16.31074219 0.38085938 15.20507812 C0.35830078 14.08552734 0.33574219 12.96597656 0.3125 11.8125 C0.27833984 10.68134766 0.24417969 9.55019531 0.20898438 8.38476562 C0.12643686 5.5899426 0.05730818 2.79543602 0 0 Z " fill="#060F20" transform="translate(395,608)"/>
<path d="M0 0 C0.33 0 0.66 0 1 0 C1 6.93 1 13.86 1 21 C0.01 21 -0.98 21 -2 21 C-2.3690205 6.21867882 -2.3690205 6.21867882 0 0 Z " fill="#10243F" transform="translate(742,618)"/>
<path d="M0 0 C0.33 0 0.66 0 1 0 C1.39036513 1.60049704 1.76178619 3.20562371 2.125 4.8125 C2.33382812 5.70582031 2.54265625 6.59914063 2.7578125 7.51953125 C3 10 3 10 1 13 C0 14 0 14 -2.5625 14.0625 C-3.366875 14.041875 -4.17125 14.02125 -5 14 C-4.28269264 10.76834156 -3.18684926 7.81292078 -1.9375 4.75 C-1.57527344 3.85796875 -1.21304688 2.9659375 -0.83984375 2.046875 C-0.56269531 1.37140625 -0.28554688 0.6959375 0 0 Z " fill="#14233B" transform="translate(812,571)"/>
<path d="M0 0 C-3.38581001 2.90212286 -5.73488687 4.29395475 -10 6 C-10.33 9.63 -10.66 13.26 -11 17 C-13.18040395 13.72939407 -13.22083539 13.23625511 -12.75 9.5625 C-12.66234375 8.80066406 -12.5746875 8.03882813 -12.484375 7.25390625 C-11.79126796 4.02872268 -10.92124265 1.69093199 -8.25 -0.3125 C-5.24827907 -1.22969251 -3.02230874 -0.68688835 0 0 Z " fill="#1C2638" transform="translate(431,613)"/>
<path d="M0 0 C0.33 0 0.66 0 1 0 C1.33 6.6 1.66 13.2 2 20 C3.32 20.33 4.64 20.66 6 21 C4.52307692 26.66153846 4.52307692 26.66153846 1.875 28.375 C0.946875 28.684375 0.946875 28.684375 0 29 C0.66 27.68 1.32 26.36 2 25 C0.35 25.33 -1.3 25.66 -3 26 C-2.01 24.515 -2.01 24.515 -1 23 C-0.63303819 20.48497823 -0.63303819 20.48497823 -0.5859375 17.67578125 C-0.54726563 16.64775391 -0.50859375 15.61972656 -0.46875 14.56054688 C-0.4378125 13.48869141 -0.406875 12.41683594 -0.375 11.3125 C-0.33632813 10.22904297 -0.29765625 9.14558594 -0.2578125 8.02929688 C-0.16349491 5.35303533 -0.07789995 2.67678157 0 0 Z " fill="#242E41" transform="translate(412,556)"/>
<path d="M0 0 C2.875 -0.125 2.875 -0.125 6 0 C6.66 0.66 7.32 1.32 8 2 C6 3.33333333 4 4.66666667 2 6 C2.309375 6.763125 2.61875 7.52625 2.9375 8.3125 C3.67893593 10.18789677 4.36228217 12.08684652 5 14 C2.13275314 13.42655063 1.1385485 13.1385485 -1 11 C-1.21358801 7.15541573 -1.17881287 3.68379022 0 0 Z " fill="#112441" transform="translate(920,556)"/>
<path d="M0 0 C0.33 0 0.66 0 1 0 C1 2.97 1 5.94 1 9 C6.28 9 11.56 9 17 9 C17 10.65 17 12.3 17 14 C14.36 13.67 11.72 13.34 9 13 C9 12.34 9 11.68 9 11 C6.03 10.67 3.06 10.34 0 10 C0 6.7 0 3.4 0 0 Z " fill="#0C1626" transform="translate(766,626)"/>
<path d="M0 0 C1.32 0 2.64 0 4 0 C3.67 0.99 3.34 1.98 3 3 C2.85507877 4.40664926 2.75371069 5.8181133 2.68359375 7.23046875 C2.64169922 8.03291016 2.59980469 8.83535156 2.55664062 9.66210938 C2.49766602 10.91217773 2.49766602 10.91217773 2.4375 12.1875 C2.39431641 13.03248047 2.35113281 13.87746094 2.30664062 14.74804688 C2.20068482 16.83184433 2.0998498 18.91590103 2 21 C0.35 21 -1.3 21 -3 21 C-2.01 20.67 -1.02 20.34 0 20 C0 13.4 0 6.8 0 0 Z " fill="#202836" transform="translate(675,619)"/>
<path d="M0 0 C6.52307692 -0.36923077 6.52307692 -0.36923077 8.9375 1.5 C9.288125 1.995 9.63875 2.49 10 3 C9.01 3 8.02 3 7 3 C7.66 4.65 8.32 6.3 9 8 C7.989375 7.525625 6.97875 7.05125 5.9375 6.5625 C2.34077795 5.0063672 -1.09268709 4.3987054 -5 4 C-4.360625 3.71125 -3.72125 3.4225 -3.0625 3.125 C-0.84793921 2.17176549 -0.84793921 2.17176549 0 0 Z " fill="#091226" transform="translate(506,609)"/>
<path d="M0 0 C2 1 2 1 3 3 C3.99 2.34 4.98 1.68 6 1 C8.33199388 0.92094936 10.66832622 0.91201231 13 1 C13 1.33 13 1.66 13 2 C11.741875 2.226875 10.48375 2.45375 9.1875 2.6875 C6.05069661 3.47447188 5.20987109 3.74950869 3.0625 6.3125 C2.04291254 8.89145651 1.39170929 11.25803499 1 14 C0.67 14 0.34 14 0 14 C0 11.36 0 8.72 0 6 C-0.66 5.67 -1.32 5.34 -2 5 C-2.33 6.65 -2.66 8.3 -3 10 C-3.75 8.375 -3.75 8.375 -4 6 C-2.0625 2.75 -2.0625 2.75 0 0 Z " fill="#060D1C" transform="translate(854,557)"/>
<path d="M0 0 C0.66 0 1.32 0 2 0 C2 6.93 2 13.86 2 21 C0.68 21.33 -0.64 21.66 -2 22 C-1.84152588 21.42926758 -1.68305176 20.85853516 -1.51977539 20.27050781 C-1.00638657 18.02789812 -0.79834104 15.96682085 -0.68359375 13.671875 C-0.64169922 12.87265625 -0.59980469 12.0734375 -0.55664062 11.25 C-0.49766602 10.0125 -0.49766602 10.0125 -0.4375 8.75 C-0.39431641 7.90953125 -0.35113281 7.0690625 -0.30664062 6.203125 C-0.20091457 4.13559329 -0.09998705 2.06781719 0 0 Z " fill="#132741" transform="translate(395,556)"/>
<path d="M0 0 C0.66 0 1.32 0 2 0 C3 1.66666667 4 3.33333333 5 5 C6.64740076 6.6857124 8.31066078 8.3563186 10 10 C10 10.33 10 10.66 10 11 C7.69 11 5.38 11 3 11 C0.87953208 7.46588679 0.46800711 4.05606165 0 0 Z " fill="#0F1C33" transform="translate(566,575)"/>
<path d="M0 0 C1.98 0 3.96 0 6 0 C5.57781184 1.6498275 5.13675575 3.29483665 4.6875 4.9375 C4.44386719 5.85402344 4.20023437 6.77054688 3.94921875 7.71484375 C3.63597656 8.46894531 3.32273437 9.22304688 3 10 C2.01 10.33 1.02 10.66 0 11 C-1.05404945 7.01803543 -0.84098656 4.01804691 0 0 Z " fill="#142540" transform="translate(506,554)"/>
<path d="M0 0 C0.66 0.33 1.32 0.66 2 1 C2 3.31 2 5.62 2 8 C3.65 8.33 5.3 8.66 7 9 C6.01 9.99 5.02 10.98 4 12 C1.69 11.01 -0.62 10.02 -3 9 C-2.4140625 2.84765625 -2.4140625 2.84765625 -2 1 C-1.34 0.67 -0.68 0.34 0 0 Z " fill="#0F233E" transform="translate(704,559)"/>
<path d="M0 0 C0 3 0 3 -2.25 5.3125 C-3.1575 6.199375 -4.065 7.08625 -5 8 C-5.680625 9.03125 -6.36125 10.0625 -7.0625 11.125 C-8.86419333 13.79848043 -10.31991472 15.27708803 -13 17 C-13.33 16.01 -13.66 15.02 -14 14 C-9.38 9.38 -4.76 4.76 0 0 Z " fill="#D21C2E" transform="translate(175,441)"/>
<path d="M0 0 C1.1875 1.5625 1.1875 1.5625 2 4 C0.75 7.5 0.75 7.5 -1 11 C-1.33 11.78375 -1.66 12.5675 -2 13.375 C-3 15 -3 15 -6 16 C-6 15.01 -6 14.02 -6 13 C-5.34 13 -4.68 13 -4 13 C-4 12.34 -4 11.68 -4 11 C-4.66 11 -5.32 11 -6 11 C-5 8 -5 8 -3.5625 6.625 C-1.62907486 4.61423786 -0.9168436 2.60947795 0 0 Z " fill="#192A44" transform="translate(502,569)"/>
<path d="M0 0 C0.66 0.33 1.32 0.66 2 1 C2 2.32 2 3.64 2 5 C2.99 5.33 3.98 5.66 5 6 C5 7.65 5 9.3 5 11 C3.35 11 1.7 11 0 11 C-1.125 9.4375 -1.125 9.4375 -2 7 C-1.125 3.25 -1.125 3.25 0 0 Z " fill="#13253E" transform="translate(587,559)"/>
<path d="M0 0 C5.75 3.625 5.75 3.625 8 7 C7.625 9.1875 7.625 9.1875 7 11 C3.8255824 9.90537324 3.01085843 9.01822665 1.25 6.0625 C0 3 0 3 0 0 Z " fill="#0D1E36" transform="translate(578,614)"/>
<path d="M0 0 C2.66666667 0.66666667 5.33333333 1.33333333 8 2 C8 2.66 8 3.32 8 4 C10.31 4.66 12.62 5.32 15 6 C15 6.33 15 6.66 15 7 C8.94623366 7.41750113 5.818224 7.11311805 1 3 C0.67 2.01 0.34 1.02 0 0 Z " fill="#102541" transform="translate(535,632)"/>
<path d="M0 0 C2.32758311 0.93103324 3.74357132 1.65382128 5.25 3.6875 C6.27095909 6.83545718 6.12632947 9.71543368 6 13 C5.34 13 4.68 13 4 13 C3.87625 12.195625 3.7525 11.39125 3.625 10.5625 C3.41875 9.716875 3.2125 8.87125 3 8 C2.34 7.67 1.68 7.34 1 7 C0.17195931 4.51587793 0 2.64779693 0 0 Z " fill="#112540" transform="translate(441,612)"/>
<path d="M0 0 C0.6875 1.8125 0.6875 1.8125 1 4 C-0.4375 5.75 -0.4375 5.75 -2 7 C-3.7074998 5.71937515 -5.37373596 4.38232443 -7 3 C-7 2.34 -7 1.68 -7 1 C-7.66 0.67 -8.32 0.34 -9 0 C-5.67465243 -1.10844919 -3.37817425 -0.84454356 0 0 Z " fill="#14243C" transform="translate(554,609)"/>
<path d="M0 0 C5.78461538 3.44615385 5.78461538 3.44615385 6.875 6.25 C6.936875 7.11625 6.936875 7.11625 7 8 C2.96825194 7.72510809 1.43105369 7.46508424 -1.375 4.4375 C-2.179375 3.2309375 -2.179375 3.2309375 -3 2 C-2.01 1.34 -1.02 0.68 0 0 Z " fill="#14233B" transform="translate(920,577)"/>
<path d="M0 0 C1.09658936 3.28976808 0.79953138 4.71303767 0 8 C0.66 7.01 1.32 6.02 2 5 C2.66 4.34 3.32 3.68 4 3 C3.40895235 7.84659077 2.02055843 11.60748167 0 16 C-2.47682859 12.28475712 -2.43538538 9.30361706 -2 5 C-1 2 -1 2 0 0 Z " fill="#060E1E" transform="translate(815,564)"/>
<path d="M0 0 C1.9375 1.625 1.9375 1.625 3 3 C2.01 4.485 2.01 4.485 1 6 C0.29875 5.154375 -0.4025 4.30875 -1.125 3.4375 C-3.79457985 0.60690249 -3.79457985 0.60690249 -7.3125 1.1875 C-8.199375 1.455625 -9.08625 1.72375 -10 2 C-10 1.01 -10 0.02 -10 -1 C-5.99788181 -2.3340394 -3.92036356 -1.40012984 0 0 Z " fill="#0D213E" transform="translate(936,571)"/>
<path d="M0 0 C0.804375 0.433125 0.804375 0.433125 1.625 0.875 C4.35280484 2.16711808 7.12612718 3.08558592 10 4 C10 4.66 10 5.32 10 6 C9.34 6 8.68 6 8 6 C8 6.66 8 7.32 8 8 C6.68 7.67 5.36 7.34 4 7 C4 6.34 4 5.68 4 5 C2.68 4.34 1.36 3.68 0 3 C0 2.01 0 1.02 0 0 Z " fill="#12243F" transform="translate(854,579)"/>
<path d="M0 0 C3.125 9.375 3.125 9.375 1 15 C-2.80774366 10.36448598 -2.80774366 10.36448598 -3 7 C-2.16985857 4.5518759 -1.12459387 2.33915526 0 0 Z " fill="#0F192B" transform="translate(505,557)"/>
<path d="M0 0 C1.051875 -0.02126953 1.051875 -0.02126953 2.125 -0.04296875 C4 0.1875 4 0.1875 6 2.1875 C5.01 2.5175 4.02 2.8475 3 3.1875 C3.33 3.8475 3.66 4.5075 4 5.1875 C1.36 5.1875 -1.28 5.1875 -4 5.1875 C-3.34 4.5275 -2.68 3.8675 -2 3.1875 C-3.32 3.1875 -4.64 3.1875 -6 3.1875 C-6 2.5275 -6 1.8675 -6 1.1875 C-3.77109005 0.07304502 -2.46944894 0.02269714 0 0 Z " fill="#081120" transform="translate(928,553.8125)"/>
<path d="M0 0 C0.66 0.99 1.32 1.98 2 3 C2.99 2.01 3.98 1.02 5 0 C5.66 0.33 6.32 0.66 7 1 C6.525625 1.639375 6.05125 2.27875 5.5625 2.9375 C3.52968613 6.92181519 3.2789471 10.58494074 3 15 C2.67 15 2.34 15 2 15 C1.67 12.03 1.34 9.06 1 6 C0.01 6.33 -0.98 6.66 -2 7 C-1.125 1.125 -1.125 1.125 0 0 Z " fill="#050B1C" transform="translate(534,614)"/>
<path d="M0 0 C3.465 1.98 3.465 1.98 7 4 C6.67 5.65 6.34 7.3 6 9 C2.60620325 7.86873442 1.21867135 6.77333918 -1 4 C-0.75 1.75 -0.75 1.75 0 0 Z " fill="#11213A" transform="translate(809,609)"/>
<path d="M0 0 C0.66 1.32 1.32 2.64 2 4 C2.99 3.67 3.98 3.34 5 3 C5.93065133 5.60582371 6.14917407 6.64198224 5.0625 9.25 C4.711875 9.8275 4.36125 10.405 4 11 C5.65 11 7.3 11 9 11 C9.33 10.34 9.66 9.68 10 9 C10 9.99 10 10.98 10 12 C7.69 12 5.38 12 3 12 C2.49440092 10.56445975 1.9957251 9.1264798 1.5 7.6875 C1.2215625 6.88699219 0.943125 6.08648438 0.65625 5.26171875 C0 3 0 3 0 0 Z " fill="#0B1323" transform="translate(803,574)"/>
<path d="M0 0 C4.29 0 8.58 0 13 0 C12.67 1.32 12.34 2.64 12 4 C9.36 4 6.72 4 4 4 C4 3.34 4 2.68 4 2 C2.68 1.34 1.36 0.68 0 0 Z " fill="#1F2E46" transform="translate(554,556)"/>
<path d="M0 0 C2.86697492 1.28519565 4.97607712 2.57129254 7 5 C7 5.66 7 6.32 7 7 C7.61875 7.28875 8.2375 7.5775 8.875 7.875 C11 9 11 9 13 11 C12.67 11.99 12.34 12.98 12 14 C12 13.34 12 12.68 12 12 C11.38125 11.7525 10.7625 11.505 10.125 11.25 C7.59641373 9.76259631 7.28160996 8.56321991 6 6 C5.34 5.67 4.68 5.34 4 5 C1.50983207 3.75491604 1.01313282 2.53283204 0 0 Z " fill="#D32630" transform="translate(280,448)"/>
<path d="M0 0 C6.44330198 0.33327424 9.50882152 1.2842626 14 6 C14 6.99 14 7.98 14 9 C12.35 9.33 10.7 9.66 9 10 C9.33 9.34 9.66 8.68 10 8 C10 7.01 10 6.02 10 5 C6.55549263 2.70366176 4.06187717 2.45983515 0 2 C0 1.34 0 0.68 0 0 Z " fill="#080E1E" transform="translate(862,554)"/>
<path d="M0 0 C0.66 0.33 1.32 0.66 2 1 C1.3503125 1.5878125 1.3503125 1.5878125 0.6875 2.1875 C-3.49202169 6.67661589 -5.61163161 12.43522288 -8 18 C-8.33 18 -8.66 18 -9 18 C-8.53471377 10.55542036 -5.40004185 5.11582912 0 0 Z " fill="#0C1222" transform="translate(519,417)"/>
<path d="M0 0 C2.375 0.1875 2.375 0.1875 5 1 C7.36670402 4.83180651 7.33297539 8.5880761 7 13 C6.34 13.66 5.68 14.32 5 15 C5 11.37 5 7.74 5 4 C3.68 4 2.36 4 1 4 C0.67 2.68 0.34 1.36 0 0 Z " fill="#1C2535" transform="translate(555,615)"/>
<path d="M0 0 C1.65 0 3.3 0 5 0 C4.75 3.3125 4.75 3.3125 4 7 C2.68 7.99 1.36 8.98 0 10 C0 6.7 0 3.4 0 0 Z " fill="#15243A" transform="translate(531,619)"/>
<path d="M0 0 C2.15377564 2.62198774 3.40072174 4.64404172 4 8 C2.02 8 0.04 8 -2 8 C-2.66 6.02 -3.32 4.04 -4 2 C-3.34 2 -2.68 2 -2 2 C-2 2.66 -2 3.32 -2 4 C-1.34 3.67 -0.68 3.34 0 3 C0 2.01 0 1.02 0 0 Z " fill="#0C1424" transform="translate(642,578)"/>
<path d="M0 0 C0.33 0 0.66 0 1 0 C1 3.63 1 7.26 1 11 C3.64 11 6.28 11 9 11 C8.01 11.33 7.02 11.66 6 12 C6 12.99 6 13.98 6 15 C4.35 15 2.7 15 1 15 C-0.09506492 11.71480525 -0.09960608 9.26336585 -0.0625 5.8125 C-0.05347656 4.72582031 -0.04445313 3.63914062 -0.03515625 2.51953125 C-0.02355469 1.68808594 -0.01195312 0.85664062 0 0 Z " fill="#030A18" transform="translate(770,559)"/>
<path d="M0 0 C0.99 0.66 1.98 1.32 3 2 C2.34 4.64 1.68 7.28 1 10 C0.67 8.68 0.34 7.36 0 6 C-0.66 5.67 -1.32 5.34 -2 5 C-3.0194119 4.01979625 -4.02246356 3.02196992 -5 2 C-2.6875 0.875 -2.6875 0.875 0 0 Z " fill="#14243C" transform="translate(602,569)"/>
<path d="M0 0 C0.33 0 0.66 0 1 0 C1.33 2.97 1.66 5.94 2 9 C8.93 9.495 8.93 9.495 16 10 C16 10.33 16 10.66 16 11 C10.39 11 4.78 11 -1 11 C-0.67 7.37 -0.34 3.74 0 0 Z " fill="#122540" transform="translate(737,573)"/>
<path d="M0 0 C5.57142857 5.14285714 5.57142857 5.14285714 6 9 C5.34 9 4.68 9 4 9 C3.67 10.32 3.34 11.64 3 13 C1.02 9.535 1.02 9.535 -1 6 C-0.01 5.67 0.98 5.34 2 5 C1.34 3.35 0.68 1.7 0 0 Z " fill="#0A1325" transform="translate(436,558)"/>
<path d="M0 0 C0.66 0.66 1.32 1.32 2 2 C1.625 4.625 1.625 4.625 1 7 C-0.98 7 -2.96 7 -5 7 C-4.34 5.35 -3.68 3.7 -3 2 C-2.01 2 -1.02 2 0 2 C0 1.34 0 0.68 0 0 Z " fill="#0E1A2D" transform="translate(621,579)"/>
<path d="M0 0 C-0.66 1.32 -1.32 2.64 -2 4 C-1.01 4.33 -0.02 4.66 1 5 C-1.64 5 -4.28 5 -7 5 C-6.67 4.34 -6.34 3.68 -6 3 C-7.32 3 -8.64 3 -10 3 C-10 2.34 -10 1.68 -10 1 C-6.52674819 -0.1577506 -3.63932552 -0.06866652 0 0 Z " fill="#060D1C" transform="translate(549,608)"/>
<path d="M0 0 C-0.33 0.99 -0.66 1.98 -1 3 C-5.62 2.34 -10.24 1.68 -15 1 C-15 0.67 -15 0.34 -15 0 C-12.87562788 -0.19448477 -10.75046809 -0.38038289 -8.625 -0.5625 C-7.44164062 -0.66691406 -6.25828125 -0.77132812 -5.0390625 -0.87890625 C-2 -1 -2 -1 0 0 Z " fill="#172A43" transform="translate(782,556)"/>
<path d="M0 0 C3.33333333 1.66666667 6.66666667 3.33333333 10 5 C10 5.33 10 5.66 10 6 C7.3125 6.3125 7.3125 6.3125 4 6 C1.125 3.5 1.125 3.5 -1 1 C-0.67 0.67 -0.34 0.34 0 0 Z " fill="#0E2340" transform="translate(702,579)"/>
<path d="M0 0 C0 0.99 0 1.98 0 3 C-2.97 3 -5.94 3 -9 3 C-9 2.34 -9 1.68 -9 1 C-2.25 -1.125 -2.25 -1.125 0 0 Z " fill="#112440" transform="translate(716,555)"/>
<path d="M0 0 C3.21043882 1.38188453 5.04936365 2.92421903 7.25 5.625 C8.03117187 6.57246094 8.03117187 6.57246094 8.828125 7.5390625 C9.40820312 8.26222656 9.40820312 8.26222656 10 9 C7 9 7 9 5.17578125 7.5390625 C4.56089844 6.90742188 3.94601562 6.27578125 3.3125 5.625 C2.68988281 4.99851562 2.06726563 4.37203125 1.42578125 3.7265625 C0 2 0 2 0 0 Z " fill="#D32632" transform="translate(268,436)"/>
<path d="M0 0 C0.99 0.99 1.98 1.98 3 3 C3.99 2.67 4.98 2.34 6 2 C6.33 3.65 6.66 5.3 7 7 C5.35 7.33 3.7 7.66 2 8 C0.74335022 5.09399739 0 3.20395416 0 0 Z " fill="#061121" transform="translate(632,563)"/>
<path d="M0 0 C0.33 1.32 0.66 2.64 1 4 C1.66 4 2.32 4 3 4 C2.67 8.95 2.34 13.9 2 19 C1.67 19 1.34 19 1 19 C0.67 12.73 0.34 6.46 0 0 Z " fill="#050A19" transform="translate(937,451)"/>
<path d="M0 0 C0.66 1.32 1.32 2.64 2 4 C2.66 3.34 3.32 2.68 4 2 C3.50168276 5.68754757 2.89932357 7.60490662 0 10 C-1.58538318 7.48203847 -2.0373656 6.32134414 -1.6875 3.3125 C-1 1 -1 1 0 0 Z " fill="#111727" transform="translate(692,619)"/>
<path d="M0 0 C2.31 0 4.62 0 7 0 C5.515 2.475 5.515 2.475 4 5 C2.35 4.67 0.7 4.34 -1 4 C-0.67 2.68 -0.34 1.36 0 0 Z " fill="#142139" transform="translate(601,580)"/>
<path d="M0 0 C0.99 0.33 1.98 0.66 3 1 C2.75 2.875 2.75 2.875 2 5 C-0.49840595 6.87380446 -1.63319166 7.05001932 -4.75 6.625 C-5.4925 6.41875 -6.235 6.2125 -7 6 C-7 5.67 -7 5.34 -7 5 C-5.35 5 -3.7 5 -2 5 C-2 4.01 -2 3.02 -2 2 C-1.34 1.34 -0.68 0.68 0 0 Z " fill="#1A2B44" transform="translate(778,569)"/>
<path d="M0 0 C2.76223278 2.76223278 2.57856291 5.20706617 3 9 C1 9 1 9 -0.5625 7.75 C-2.14533111 5.82307517 -2.5806825 4.43204149 -3 2 C-2.01 2 -1.02 2 0 2 C0 1.34 0 0.68 0 0 Z " fill="#13253F" transform="translate(804,569)"/>
<path d="M0 0 C2.5654594 2.5654594 2.54046087 4.47686668 3 8 C2.01 8.495 2.01 8.495 1 9 C-1.50037734 6.82575883 -2.43628586 5.26954202 -3 2 C-2.01 2 -1.02 2 0 2 C0 1.34 0 0.68 0 0 Z " fill="#142640" transform="translate(490,565)"/>
<path d="M0 0 C2.375 0.25 2.375 0.25 5 1 C6.7941758 3.56310828 7 4.83119306 7 8 C3.535 6.02 3.535 6.02 0 4 C0 2.68 0 1.36 0 0 Z " fill="#13243D" transform="translate(598,554)"/>
<path d="M0 0 C0.81210937 0.29003906 1.62421875 0.58007812 2.4609375 0.87890625 C3.27820313 1.16636719 4.09546875 1.45382812 4.9375 1.75 C5.56398438 1.97816406 6.19046875 2.20632813 6.8359375 2.44140625 C6.8359375 2.77140625 6.8359375 3.10140625 6.8359375 3.44140625 C2.3809375 3.93640625 2.3809375 3.93640625 -2.1640625 4.44140625 C-2.8240625 3.12140625 -3.4840625 1.80140625 -4.1640625 0.44140625 C-2.1640625 -0.55859375 -2.1640625 -0.55859375 0 0 Z " fill="#10243E" transform="translate(430.1640625,635.55859375)"/>
<path d="M0 0 C1.65 0 3.3 0 5 0 C5.66 1.65 6.32 3.3 7 5 C5.35 5 3.7 5 2 5 C1.34 3.35 0.68 1.7 0 0 Z " fill="#0E1E35" transform="translate(513,612)"/>
<path d="M0 0 C0.99 0 1.98 0 3 0 C3.33 2.97 3.66 5.94 4 9 C3.01 8.67 2.02 8.34 1 8 C1 7.34 1 6.68 1 6 C0.01 5.67 -0.98 5.34 -2 5 C-1.34 4.34 -0.68 3.68 0 3 C0 2.01 0 1.02 0 0 Z " fill="#182840" transform="translate(639,574)"/>
<path d="M0 0 C4.2742558 1.5830577 6.26531794 4.50568404 9 8 C6 8 6 8 4.39453125 6.7578125 C3.87246094 6.21898437 3.35039062 5.68015625 2.8125 5.125 C2.28269531 4.59132813 1.75289062 4.05765625 1.20703125 3.5078125 C0 2 0 2 0 0 Z " fill="#D42835" transform="translate(152,518)"/>
<path d="M0 0 C1.31625194 2.63250388 0.74813658 3.80179056 0.0625 6.625 C-0.13214844 7.44226563 -0.32679688 8.25953125 -0.52734375 9.1015625 C-0.76130859 10.04128906 -0.76130859 10.04128906 -1 11 C-1.33 11 -1.66 11 -2 11 C-2.12375 9.865625 -2.2475 8.73125 -2.375 7.5625 C-2.58125 6.386875 -2.7875 5.21125 -3 4 C-3.66 3.67 -4.32 3.34 -5 3 C-3 1 -3 1 0 0 Z " fill="#091327" transform="translate(425,616)"/>
<path d="M0 0 C1.32 0.33 2.64 0.66 4 1 C4 1.99 4 2.98 4 4 C1.36 4 -1.28 4 -4 4 C-4.33 3.34 -4.66 2.68 -5 2 C-3.35 2 -1.7 2 0 2 C0 1.34 0 0.68 0 0 Z " fill="#172A43" transform="translate(802,608)"/>
<path d="M0 0 C1 3.875 1 3.875 1 5 C-1.64 5.33 -4.28 5.66 -7 6 C-6.67 4.68 -6.34 3.36 -6 2 C-4.7934375 1.7834375 -4.7934375 1.7834375 -3.5625 1.5625 C-1.07896294 1.25864751 -1.07896294 1.25864751 0 0 Z " fill="#132641" transform="translate(721,579)"/>
<path d="M0 0 C1.9375 0.75 1.9375 0.75 4 2 C4.75 4.125 4.75 4.125 5 6 C4.01 6.33 3.02 6.66 2 7 C1.67 7.66 1.34 8.32 1 9 C0.63877119 7.68942607 0.28619689 6.37646376 -0.0625 5.0625 C-0.35833984 3.96615234 -0.35833984 3.96615234 -0.66015625 2.84765625 C-0.77230469 2.23792969 -0.88445313 1.62820313 -1 1 C-0.67 0.67 -0.34 0.34 0 0 Z " fill="#15253F" transform="translate(633,559)"/>
<path d="M0 0 C0 1.32 0 2.64 0 4 C-0.66 4 -1.32 4 -2 4 C-2 3.34 -2 2.68 -2 2 C-6.62 2 -11.24 2 -16 2 C-16 1.67 -16 1.34 -16 1 C-13.70839646 0.83246763 -11.41671509 0.66599948 -9.125 0.5 C-7.84882812 0.4071875 -6.57265625 0.314375 -5.2578125 0.21875 C-3.50763316 0.10123196 -1.75412035 0 0 0 Z " fill="#020B25" transform="translate(755,581)"/>
<path d="M0 0 C0.66 0.66 1.32 1.32 2 2 C-1.12621626 5.39417765 -3.56541027 7.6062718 -8 9 C-7.04270084 7.87411986 -6.08412105 6.7493285 -5.125 5.625 C-4.59132812 4.99851562 -4.05765625 4.37203125 -3.5078125 3.7265625 C-2.38567993 2.44163349 -1.20628025 1.20628025 0 0 Z " fill="#CB0311" transform="translate(154,463)"/>
<path d="M0 0 C0.99 0 1.98 0 3 0 C3.625 2.875 3.625 2.875 4 6 C3.34 6.66 2.68 7.32 2 8 C2 7.34 2 6.68 2 6 C1.34 6 0.68 6 0 6 C-1.125 2.25 -1.125 2.25 0 0 Z " fill="#192940" transform="translate(689,624)"/>
<path d="M0 0 C-0.33 1.32 -0.66 2.64 -1 4 C-3.97 3.67 -6.94 3.34 -10 3 C-4 0 -4 0 0 0 Z " fill="#0C192F" transform="translate(511,610)"/>
<path d="M0 0 C1.96446905 1.6344795 2.92317791 2.46429394 3.29296875 5.04296875 C3.1953125 7.02864583 3.09765625 9.01432292 3 11 C2.01 10.34 1.02 9.68 0 9 C-0.29296875 6.8359375 -0.29296875 6.8359375 -0.1875 4.375 C-0.16042969 3.55773437 -0.13335938 2.74046875 -0.10546875 1.8984375 C-0.05326172 0.95871094 -0.05326172 0.95871094 0 0 Z " fill="#142642" transform="translate(522,570)"/>
<path d="M0 0 C2.86724686 0.57344937 3.8614515 0.8614515 6 3 C5.625 5.125 5.625 5.125 5 7 C4.67 6.01 4.34 5.02 4 4 C2.68 4 1.36 4 0 4 C0 2.68 0 1.36 0 0 Z " fill="#0B162A" transform="translate(781,556)"/>
<path d="M0 0 C2.64 0.33 5.28 0.66 8 1 C6.71034824 2.37562854 5.37310707 3.70766393 4 5 C3.34 5 2.68 5 2 5 C1.67 5.66 1.34 6.32 1 7 C0.67 4.69 0.34 2.38 0 0 Z " fill="#15253D" transform="translate(589,555)"/>
<path d="M0 0 C0.33 0 0.66 0 1 0 C1.05391993 1.79133978 1.09275571 3.58313899 1.125 5.375 C1.14820313 6.37273437 1.17140625 7.37046875 1.1953125 8.3984375 C1 11 1 11 -1 13 C-1.99 12.67 -2.98 12.34 -4 12 C-3.525625 11.319375 -3.05125 10.63875 -2.5625 9.9375 C-0.7774364 6.58158044 -0.36846914 3.75838519 0 0 Z " fill="#060D1B" transform="translate(567,489)"/>
<path d="M0 0 C3.7952131 1.49097658 5.61042731 3.75700849 8 7 C5 7 5 7 2.3125 4.625 C0 2 0 2 0 0 Z " fill="#D32531" transform="translate(256,424)"/>
<path d="M0 0 C3.7952131 1.49097658 5.61042731 3.75700849 8 7 C5 7 5 7 2.3125 4.625 C0 2 0 2 0 0 Z " fill="#D2212E" transform="translate(232,400)"/>
<path d="M0 0 C-4.32734391 2.22923777 -7.28400182 1.92470553 -12 1 C-12 0.67 -12 0.34 -12 0 C-10.56666979 -0.39063507 -9.12807321 -0.76198474 -7.6875 -1.125 C-6.88699219 -1.33382812 -6.08648437 -1.54265625 -5.26171875 -1.7578125 C-3 -2 -3 -2 0 0 Z " fill="#152741" transform="translate(443,611)"/>
<path d="M0 0 C1.37562854 1.28965176 2.70766393 2.62689293 4 4 C4 4.66 4 5.32 4 6 C2.35 6 0.7 6 -1 6 C-1.042721 4.33388095 -1.04063832 2.66617115 -1 1 C-0.67 0.67 -0.34 0.34 0 0 Z " fill="#10223C" transform="translate(782,579)"/>
<path d="M0 0 C1.9375 0.375 1.9375 0.375 4 1 C4.33 1.66 4.66 2.32 5 3 C0.9472484 3.98248524 -2.83861737 4.08159574 -7 4 C-7 3.67 -7 3.34 -7 3 C-4.69 2.34 -2.38 1.68 0 1 C0 0.67 0 0.34 0 0 Z " fill="#172943" transform="translate(565,569)"/>
<path d="M0 0 C1.98 0 3.96 0 6 0 C5.40138258 2.35171131 4.73075648 4.6859378 4 7 C3.01 7.495 3.01 7.495 2 8 C2.33 6.35 2.66 4.7 3 3 C2.01 2.67 1.02 2.34 0 2 C0 1.34 0 0.68 0 0 Z " fill="#2C313D" transform="translate(506,554)"/>
<path d="M0 0 C1.32 0.33 2.64 0.66 4 1 C2.42105792 3.36841312 1.0245738 5.06745228 -1 7 C-1.625 5.1875 -1.625 5.1875 -2 3 C-1.34 2.01 -0.68 1.02 0 0 Z " fill="#12243E" transform="translate(820,556)"/>
<path d="M0 0 C1.423125 0.495 1.423125 0.495 2.875 1 C5.77062452 2.10159191 5.77062452 2.10159191 8 2 C8.33 3.32 8.66 4.64 9 6 C4.58763974 6 3.21615077 3.9302707 0 1 C0 0.67 0 0.34 0 0 Z " fill="#D11825" transform="translate(212,382)"/>
<path d="M0 0 C0.66 0.33 1.32 0.66 2 1 C1.25 6.75 1.25 6.75 -1 9 C-2.0326802 6.21176345 -2.04509293 5.1322726 -1.0625 2.25 C-0.711875 1.5075 -0.36125 0.765 0 0 Z " fill="#102440" transform="translate(816,565)"/>
<path d="M0 0 C1.65 0.99 3.3 1.98 5 3 C3.33333333 4.66666667 1.66666667 6.33333333 0 8 C-1.125 2.25 -1.125 2.25 0 0 Z " fill="#14233A" transform="translate(440,565)"/>
<path d="M0 0 C0.98120464 3.05263664 0.98120464 4.94736336 0 8 C-1.5 6.6875 -1.5 6.6875 -3 5 C-3 4.01 -3 3.02 -3 2 C-2.01 1.34 -1.02 0.68 0 0 Z " fill="#152540" transform="translate(572,561)"/>
<path d="M0 0 C1.98 0 3.96 0 6 0 C6.66 1.98 7.32 3.96 8 6 C7.34 6 6.68 6 6 6 C5.67 5.01 5.34 4.02 5 3 C3.35 2.67 1.7 2.34 0 2 C0 1.34 0 0.68 0 0 Z " fill="#323642" transform="translate(795,554)"/>
<path d="M0 0 C0 3 0 3 -2.3125 5.6875 C-5 8 -5 8 -8 8 C-5.36 5.36 -2.72 2.72 0 0 Z " fill="#D32E37" transform="translate(175,441)"/>
<path d="M0 0 C1.125 1.6875 1.125 1.6875 2 4 C1.125 6.75 1.125 6.75 0 9 C-1.125 7.3125 -1.125 7.3125 -2 5 C-1.125 2.25 -1.125 2.25 0 0 Z " fill="#102541" transform="translate(502,569)"/>
<path d="M0 0 C1.98 0 3.96 0 6 0 C6.33 1.32 6.66 2.64 7 4 C6.01 4 5.02 4 4 4 C3.67 4.66 3.34 5.32 3 6 C2.814375 5.071875 2.814375 5.071875 2.625 4.125 C2.12802644 1.80879168 2.12802644 1.80879168 0 0 Z " fill="#3A475A" transform="translate(483,554)"/>
<path d="M0 0 C1.65 0 3.3 0 5 0 C5 0.99 5 1.98 5 3 C5.66 3.33 6.32 3.66 7 4 C5.35 4.33 3.7 4.66 2 5 C1.34 3.35 0.68 1.7 0 0 Z " fill="#172439" transform="translate(682,630)"/>
<path d="M0 0 C0.66 0 1.32 0 2 0 C2 1.98 2 3.96 2 6 C1.01 6.495 1.01 6.495 0 7 C-0.38133299 5.0085944 -0.71325582 3.00720923 -1 1 C-0.67 0.67 -0.34 0.34 0 0 Z " fill="#102541" transform="translate(852,572)"/>
<path d="M0 0 C-2.5654594 2.5654594 -4.47686668 2.54046087 -8 3 C-8 2.01 -8 1.02 -8 0 C-4.71023192 -1.09658936 -3.28696233 -0.79953138 0 0 Z " fill="#172B44" transform="translate(934,570)"/>
</svg>
